{"glyphs":{"0":{"ha":833,"x_min":11,"x_max":825,"o":"m 393 894 q 382 890 388 893 q 260 755 311 867 q 207 501 208 643 q 258 251 204 353 q 403 133 310 153 q 461 143 432 128 q 531 211 497 163 q 631 495 608 321 q 604 778 654 669 q 469 865 561 871 q 393 894 425 863 m 625 1028 q 782 860 728 978 q 825 469 856 699 q 692 99 797 249 q 554 -29 631 13 q 363 -58 463 -79 q 85 160 179 -19 q 11 504 8 306 q 86 846 14 692 q 318 1076 171 1025 q 414 1093 363 1092 q 496 1092 446 1096 q 506 1092 499 1092 q 539 1090 528 1090 q 592 1072 568 1089 q 625 1028 615 1054 z "},"1":{"ha":431,"x_min":-1,"x_max":431,"o":"m 21 913 q 119 1006 60 961 q 219 1071 153 1031 q 222 1073 221 1072 q 224 1074 222 1074 q 275 1096 250 1090 q 351 1089 315 1104 q 407 1040 386 1075 q 425 993 419 1021 q 431 918 432 963 q 425 849 429 890 q 421 819 424 836 q 413 743 413 756 q 410 397 413 624 q 407 56 407 174 q 378 -14 407 15 q 308 -43 349 -43 q 240 -14 268 -43 q 211 56 211 15 q 214 400 211 175 q 217 743 217 625 q 221 793 217 761 q 224 818 221 803 q 226 840 224 822 q 171 789 193 815 q 106 753 146 757 q 34 774 65 749 q -1 841 3 800 q 21 913 -6 882 z "},"2":{"ha":738,"x_min":14,"x_max":738,"o":"m 14 864 q 158 1032 53 958 q 381 1124 264 1106 q 619 1071 522 1144 q 738 811 731 988 q 642 524 746 658 q 544 422 603 475 q 443 335 510 390 q 439 331 442 333 q 437 329 438 331 q 435 328 436 328 q 428 322 431 325 q 274 178 315 229 q 249 143 260 160 q 271 144 258 143 q 310 147 289 146 q 428 157 417 157 q 500 163 451 158 q 514 164 510 163 q 614 169 575 169 q 683 141 654 169 q 711 72 711 113 q 683 2 711 31 q 614 -26 654 -26 q 531 -32 583 -26 q 518 -32 528 -32 q 435 -39 464 -37 q 416 -40 433 -39 q 380 -43 399 -42 q 344 -47 361 -44 l 326 -49 q 285 -51 304 -50 q 172 -57 213 -57 q 125 -57 143 -58 q 93 -50 107 -56 q 61 -33 75 -44 q 36 -4 46 -21 q 22 47 22 19 q 121 300 25 181 q 210 393 157 344 q 304 474 243 424 q 311 479 307 476 q 315 483 313 481 q 318 486 317 485 q 413 565 382 538 q 486 644 458 608 q 543 801 546 721 q 526 882 540 850 q 501 915 517 903 q 410 929 469 939 q 274 874 340 919 q 194 789 213 832 q 142 735 179 751 q 67 735 104 719 q 14 789 29 751 q 14 864 -1 826 z "},"3":{"ha":783,"x_min":-44,"x_max":782,"o":"m 50 1071 q 226 1081 93 1072 q 296 1085 268 1083 q 617 1086 524 1096 q 679 1076 653 1083 q 750 1038 724 1064 q 782 978 775 1013 q 774 910 789 943 q 718 846 758 875 q 586 726 653 796 q 496 624 540 679 q 529 614 513 619 q 701 500 636 579 q 782 253 781 403 q 663 -19 782 79 q 404 -96 557 -107 q 143 10 257 -86 q -18 286 17 115 q -3 359 -25 325 q 60 401 19 393 q 133 386 100 408 q 175 324 167 364 q 268 160 194 221 q 417 99 335 104 q 539 132 492 94 q 586 251 586 171 q 549 376 585 332 q 468 428 521 411 q 390 442 433 439 q 335 442 361 444 q 328 442 331 442 l 326 442 q 231 485 265 433 q 231 590 197 538 l 232 592 q 235 597 233 594 q 246 615 240 606 q 289 676 267 644 q 446 863 364 778 q 478 894 461 879 q 307 889 411 894 q 238 885 279 888 q 57 875 101 878 q -13 901 17 874 q -44 969 -43 929 q -18 1040 -46 1010 q 50 1071 10 1069 z "},"4":{"ha":807,"x_min":-25,"x_max":804,"o":"m 468 467 q 474 733 475 625 q 474 750 474 742 q 432 703 457 731 q 422 693 431 701 l 421 692 q 300 551 340 600 q 231 457 260 501 q 268 460 246 458 l 294 463 q 321 465 311 464 q 368 468 350 468 q 431 467 389 468 q 468 467 453 467 m 654 983 q 669 736 667 871 q 664 482 671 629 q 683 486 674 483 q 758 477 722 497 q 803 418 793 457 q 794 344 814 379 q 735 297 774 308 q 656 281 697 288 q 647 -4 647 101 q 619 -73 647 -44 q 549 -101 590 -101 q 480 -73 508 -101 q 451 -4 451 -44 q 460 271 451 103 q 428 271 446 271 q 368 272 388 272 q 286 265 357 272 q 228 260 253 263 q 129 258 169 257 q 22 286 61 263 q -15 326 -3 300 q -25 360 -24 342 q -24 394 -28 376 q -16 422 -22 407 q 3 458 -10 438 q 7 467 4 463 q 22 493 14 479 q 28 501 25 497 q 29 504 28 503 l 29 506 q 147 674 76 586 q 275 822 190 726 q 278 825 276 822 q 283 831 281 828 q 286 833 285 833 q 394 958 358 914 q 463 1049 433 1006 q 483 1079 471 1065 q 486 1083 485 1082 q 548 1127 508 1118 q 622 1114 588 1136 q 664 1056 654 1093 q 654 983 674 1018 z "},"5":{"ha":801,"x_min":-19,"x_max":799,"o":"m 240 876 q 235 838 238 865 q 228 799 231 808 q 217 754 222 775 q 426 822 325 817 q 626 767 538 828 q 744 627 700 715 q 799 432 789 539 q 783 231 808 329 q 701 63 758 133 q 528 -58 632 -26 q 299 -61 424 -90 l 297 -61 q 276 -56 294 -60 q 251 -50 257 -51 q 189 -32 215 -42 q 53 51 103 -3 q -19 240 -17 126 q 8 310 -19 281 q 76 340 36 339 q 146 313 117 340 q 176 244 175 285 q 196 185 178 206 q 253 153 214 165 q 296 140 269 146 q 319 135 299 139 q 343 129 339 131 q 472 129 418 113 q 547 183 517 144 q 595 286 581 225 q 604 414 610 347 q 574 530 599 479 q 514 606 550 581 q 438 626 481 629 q 300 575 376 624 q 222 526 282 565 l 222 525 q 163 486 194 507 q 143 474 153 481 q 138 471 142 472 q 136 469 138 469 q 63 455 103 447 q 0 497 24 463 q -14 569 -21 531 q 38 844 -7 665 q 38 849 38 846 q 40 864 39 853 q 47 910 44 894 q 61 975 53 950 q 80 1015 69 999 q 104 1044 90 1032 q 164 1068 131 1065 q 658 1096 456 1089 q 729 1069 700 1097 q 760 1001 758 1042 q 734 931 761 961 q 667 900 707 901 q 240 876 492 894 z "},"6":{"ha":771,"x_min":-14,"x_max":765,"o":"m 175 392 q 176 331 171 357 q 288 187 194 249 q 465 139 382 125 q 553 200 524 149 q 572 322 585 256 q 501 438 560 394 q 294 486 425 493 q 217 467 242 483 q 186 417 194 451 q 175 392 182 404 m 601 886 q 353 818 431 879 q 258 679 297 774 q 283 682 271 681 q 617 596 485 692 q 765 358 739 507 q 722 101 792 219 q 499 -54 646 -29 q 283 -29 393 -71 q 90 99 172 13 q -14 289 8 185 q -12 457 -31 363 q 19 578 -4 504 q 24 594 19 579 q 31 614 29 610 q 40 646 36 632 q 232 972 104 871 q 593 1082 358 1072 q 663 1057 633 1085 q 695 989 693 1029 q 669 919 697 949 q 601 886 642 889 z "},"7":{"ha":811,"x_min":-11,"x_max":811,"o":"m 90 1035 q 172 1038 104 1033 q 224 1040 185 1038 q 294 1044 263 1042 l 328 1046 q 393 1049 364 1047 q 606 1057 531 1056 q 685 1056 656 1057 q 718 1053 704 1056 q 738 1049 728 1051 q 772 1031 757 1043 q 811 961 808 1004 q 810 928 813 944 q 801 907 807 918 q 793 893 799 901 q 781 874 789 886 q 772 863 778 871 q 762 849 767 856 q 753 836 757 842 l 747 829 q 744 825 746 826 q 721 793 729 806 q 289 -11 425 358 q 238 -65 275 -49 q 163 -68 200 -82 q 108 -17 125 -54 q 104 57 90 19 q 529 858 243 431 q 403 853 476 857 q 338 850 374 851 q 182 842 211 843 q 83 839 106 838 q 15 870 43 840 q -11 940 -12 900 q 20 1008 -10 981 q 90 1035 50 1036 z "},"8":{"ha":881,"x_min":10,"x_max":881,"o":"m 425 663 q 443 676 433 669 q 519 756 497 719 q 532 807 536 782 q 476 896 526 844 q 364 894 428 904 q 253 861 300 885 q 194 810 207 838 q 189 786 189 799 q 201 740 190 767 q 264 699 211 718 q 425 663 311 682 m 575 1058 q 615 1033 599 1051 q 725 840 708 938 q 686 651 742 743 q 656 610 672 631 q 731 576 697 596 q 881 303 894 488 q 751 38 869 144 q 500 -81 649 -57 q 226 -44 353 -103 q 21 167 81 21 q 10 289 -3 226 q 57 388 21 339 q 201 514 103 446 q 197 515 199 514 q 99 567 139 536 q 22 661 47 606 q 17 893 -33 786 q 164 1035 58 982 q 344 1090 243 1075 q 524 1086 444 1104 q 575 1058 554 1081 m 469 456 q 419 422 449 440 l 408 415 q 385 401 397 408 q 369 390 374 393 q 322 360 342 372 q 213 268 240 304 q 201 247 203 256 q 203 242 201 246 q 307 133 233 167 q 470 114 381 100 q 619 182 560 128 q 685 317 679 236 q 676 369 688 350 q 636 406 665 389 q 547 438 604 424 q 469 456 515 446 z "},"9":{"ha":883,"x_min":44,"x_max":883,"o":"m 651 511 q 654 517 653 514 q 688 672 689 607 q 633 799 688 722 q 581 861 608 838 q 540 886 557 882 q 340 854 421 917 q 261 701 268 796 q 321 558 256 610 q 419 517 360 528 q 596 518 494 503 q 651 511 625 524 m 149 144 q 376 192 271 138 q 532 315 463 235 q 200 406 326 304 q 94 542 129 461 q 67 714 60 624 q 112 877 72 800 q 219 1007 151 954 q 389 1085 294 1067 q 590 1075 483 1103 q 708 1010 650 1060 q 796 910 756 968 q 883 675 882 783 q 835 441 885 568 q 699 208 785 314 q 465 17 597 83 q 138 -51 313 -61 q 69 -18 96 -49 q 45 53 43 13 q 78 120 47 93 q 149 144 108 147 z "}," ":{"ha":304,"x_min":0,"x_max":0,"o":""},"!":{"ha":406,"x_min":-14,"x_max":403,"o":"m 88 192 q 176 208 131 215 q 254 167 222 201 q 300 56 293 125 q 286 -56 306 -6 q 249 -114 274 -90 q 171 -154 215 -147 q 32 -112 85 -165 q -14 6 -14 -67 q 13 108 -12 58 q 81 188 39 158 q 84 189 82 188 q 88 192 86 190 m 403 996 q 400 983 401 990 q 393 897 394 958 q 386 800 392 835 q 376 736 382 769 q 326 499 363 651 q 283 301 296 360 q 242 239 276 261 q 169 224 208 217 q 106 265 129 232 q 92 339 83 299 q 136 543 104 400 q 183 769 169 690 q 193 828 189 800 q 197 903 196 851 q 200 958 199 939 q 208 1022 201 993 q 214 1049 211 1036 q 260 1108 225 1088 q 335 1117 296 1128 q 394 1070 374 1106 q 403 996 414 1035 z "},"\"":{"ha":482,"x_min":26,"x_max":481,"o":"m 221 1022 q 226 865 229 960 q 226 824 226 851 q 225 747 225 772 q 196 678 225 707 q 126 650 167 650 q 58 678 86 650 q 29 747 29 707 q 31 829 29 775 q 32 869 31 857 q 26 999 33 950 q 47 1071 22 1039 q 113 1108 72 1103 q 185 1088 153 1113 q 221 1022 217 1063 m 481 988 q 467 849 468 933 q 467 758 467 818 q 467 717 467 731 q 438 647 467 676 q 369 618 410 618 q 299 647 328 618 q 271 717 271 676 q 271 757 271 729 q 271 853 271 819 q 289 1029 274 957 q 332 1090 297 1068 q 406 1103 367 1113 q 467 1060 446 1094 q 481 988 489 1026 z "},"#":{"ha":1128,"x_min":15,"x_max":1128,"o":"m 654 382 q 683 454 665 411 q 739 588 724 550 q 749 615 744 601 q 654 610 715 614 q 621 608 632 608 q 460 600 521 601 q 406 396 431 497 q 410 396 408 396 q 561 388 493 390 q 654 382 611 385 m 1071 942 q 1025 829 1049 894 q 1019 811 1022 821 q 1038 811 1029 811 q 1104 776 1078 807 q 1128 706 1131 746 q 1094 639 1125 665 q 1022 615 1063 613 q 957 618 992 618 q 921 517 939 563 q 865 379 906 476 q 864 378 865 378 q 922 381 899 379 q 953 383 940 382 q 961 385 957 385 l 963 385 q 1037 381 1000 399 q 1087 324 1074 363 q 1082 249 1100 286 q 1025 200 1064 213 q 826 182 972 182 q 789 182 808 182 q 763 90 772 133 q 719 28 754 50 q 645 16 685 7 q 584 60 606 25 q 572 133 563 94 q 586 189 578 161 q 550 192 568 190 q 397 200 482 194 q 363 203 381 201 q 326 -3 342 99 q 288 -67 321 -43 q 215 -84 256 -90 q 151 -45 175 -78 q 133 26 126 -12 q 165 215 147 121 q 113 218 125 218 q 44 247 72 218 q 16 317 15 276 q 46 386 17 358 q 115 414 75 414 q 207 408 138 414 q 258 604 231 506 q 136 619 194 608 q 72 658 96 625 q 56 732 49 692 q 96 795 63 772 q 169 813 129 818 q 314 797 236 800 q 397 1043 353 918 q 447 1099 411 1082 q 522 1103 483 1117 q 577 1052 560 1089 q 582 978 594 1015 q 521 799 549 886 q 610 803 558 800 q 642 806 621 804 q 814 814 760 813 q 840 894 829 860 q 893 1025 867 968 q 949 1075 911 1061 q 1023 1072 986 1089 q 1074 1017 1060 1056 q 1071 942 1088 979 z "},"$":{"ha":893,"x_min":8,"x_max":892,"o":"m 394 628 q 397 669 397 651 q 393 818 399 725 q 297 771 329 799 q 283 751 286 760 q 283 740 282 747 q 394 628 297 683 m 693 204 q 692 210 692 207 q 690 221 690 217 q 688 246 689 236 q 688 285 686 260 l 688 286 q 688 297 688 293 q 658 311 676 304 q 565 347 631 324 q 558 349 561 349 q 544 233 550 282 q 532 111 536 165 q 635 117 592 108 q 697 146 682 126 q 697 169 697 154 q 693 199 696 181 q 693 204 693 201 m 583 1135 q 578 1028 576 1088 q 582 1028 579 1028 q 779 942 713 1014 q 806 872 807 913 q 775 804 804 832 q 705 778 746 776 q 636 808 664 779 q 614 821 631 815 q 589 829 603 825 q 593 664 596 729 q 583 549 592 619 q 631 532 599 543 q 736 492 701 506 q 804 456 778 474 q 867 386 849 425 q 883 324 881 357 q 883 281 885 307 l 883 279 q 883 258 883 264 q 888 225 883 254 q 892 185 890 201 q 892 126 894 153 q 871 53 889 85 q 783 -35 839 0 q 675 -75 736 -62 q 531 -85 610 -87 q 543 -154 535 -129 q 542 -228 558 -192 q 488 -281 526 -265 q 413 -279 450 -296 q 361 -225 376 -262 q 332 -57 336 -161 q 46 63 142 -11 q 8 128 14 88 q 28 200 3 168 q 93 238 53 232 q 165 218 133 243 q 283 161 201 190 q 339 144 310 151 q 350 256 343 194 q 365 382 356 307 q 371 422 367 392 q 239 496 293 457 q 93 693 121 579 q 167 915 61 819 q 363 1013 239 982 q 382 1017 372 1014 q 389 1158 381 1094 q 425 1224 393 1199 q 497 1244 457 1249 q 563 1207 538 1239 q 583 1135 588 1175 z "},"%":{"ha":1103,"x_min":51,"x_max":1104,"o":"m 361 926 q 350 928 356 926 q 292 939 328 929 q 264 944 271 943 q 254 944 257 944 q 238 922 243 940 q 236 869 228 896 q 243 857 240 861 q 246 856 244 856 q 250 854 247 854 q 260 856 254 854 q 308 878 281 860 q 358 918 351 904 l 360 919 q 361 926 360 922 m 478 1094 q 528 1049 508 1078 q 557 965 551 1014 q 536 835 564 894 q 474 754 514 789 q 411 711 453 736 q 188 668 290 636 q 103 719 139 683 q 51 807 68 756 q 51 985 21 894 q 183 1128 86 1090 q 292 1138 233 1147 q 336 1129 308 1136 q 369 1122 360 1124 q 378 1122 375 1122 q 433 1123 406 1131 q 478 1094 460 1115 m 879 308 q 871 308 875 308 q 836 293 851 306 q 801 235 808 272 q 811 181 796 201 q 831 164 818 171 q 879 151 850 154 q 889 151 885 151 l 892 153 q 896 157 894 154 q 908 219 910 178 q 886 297 906 267 q 881 307 883 303 q 879 308 879 307 m 1008 456 q 1054 400 1033 432 q 1104 229 1099 325 q 1058 49 1108 122 q 976 -24 1026 0 q 864 -43 925 -49 q 651 67 722 -33 q 610 272 588 156 q 717 449 631 382 q 942 501 814 524 q 1008 456 985 493 m 878 1101 q 894 1037 899 1072 q 864 978 889 1001 q 847 950 857 968 q 790 842 825 911 q 636 513 725 708 q 490 181 550 325 q 444 65 460 108 q 432 32 436 44 q 403 -28 429 -3 q 335 -57 375 -57 q 265 -28 294 -57 q 236 40 236 0 q 246 90 236 61 q 260 133 250 107 q 308 256 278 179 q 457 594 371 403 q 615 929 547 793 q 676 1046 653 1003 q 701 1088 692 1071 q 743 1131 722 1117 q 816 1144 776 1153 q 878 1101 856 1136 z "},"&":{"ha":914,"x_min":24,"x_max":910,"o":"m 299 442 q 250 386 269 413 q 218 253 196 313 q 251 219 224 238 q 345 184 289 196 q 453 176 401 172 q 465 178 458 178 q 339 368 396 268 q 299 442 317 406 m 531 894 q 474 888 499 896 q 397 853 425 872 q 386 829 390 847 q 388 769 382 806 q 453 821 429 800 q 531 894 510 867 m 792 -76 q 718 -60 756 -76 q 660 -26 690 -47 q 606 19 633 -7 q 467 -19 549 -12 q 306 -7 386 -25 q 149 53 215 11 q 33 188 63 107 q 24 358 3 271 q 92 501 40 429 q 197 615 132 556 q 218 635 207 625 q 200 703 207 669 q 194 865 181 794 q 283 1011 213 960 q 411 1074 335 1049 q 528 1091 464 1092 q 642 1068 593 1090 q 701 1025 676 1051 q 739 949 731 992 q 694 788 753 872 q 576 669 658 736 q 507 614 550 647 l 471 586 q 453 572 460 578 q 508 465 476 521 q 617 301 558 381 q 639 338 628 319 q 724 538 683 418 q 772 595 736 576 q 847 601 808 614 q 903 551 885 588 q 910 478 922 515 q 808 240 864 339 q 750 153 781 192 q 775 133 763 142 q 797 119 789 124 q 861 90 833 118 q 889 21 889 61 q 860 -48 889 -19 q 792 -76 832 -76 z "},"'":{"ha":378,"x_min":163,"x_max":372,"o":"m 372 1036 q 358 936 360 999 q 369 843 357 874 q 367 767 383 804 q 313 716 351 731 q 238 718 275 701 q 186 772 201 735 q 163 934 163 838 q 188 1100 164 1031 q 238 1156 201 1139 q 312 1160 274 1174 q 368 1111 350 1147 q 372 1036 386 1075 z "},"(":{"ha":521,"x_min":39,"x_max":521,"o":"m 488 983 q 310 691 378 851 q 235 372 243 531 q 282 71 225 207 q 482 -174 344 -75 q 521 -237 514 -197 q 503 -310 528 -278 q 440 -350 479 -343 q 367 -332 400 -357 q 101 -6 185 -201 q 39 383 26 172 q 129 764 50 574 q 338 1110 208 954 q 404 1144 364 1140 q 476 1121 444 1147 q 510 1054 507 1094 q 488 983 514 1014 z "},")":{"ha":571,"x_min":21,"x_max":568,"o":"m 178 1115 q 358 906 272 1042 q 499 606 443 771 q 568 294 556 443 q 538 7 583 125 q 400 -168 503 -85 q 242 -274 342 -215 q 167 -284 206 -294 q 107 -239 128 -274 q 97 -165 86 -204 q 143 -104 107 -125 q 276 -15 231 -54 q 356 78 339 35 q 374 277 385 153 q 314 542 363 401 q 197 792 267 679 q 58 960 128 906 q 21 1025 26 985 q 40 1097 15 1065 q 106 1135 65 1129 q 178 1115 146 1140 z "},"*":{"ha":653,"x_min":0,"x_max":653,"o":"m 549 768 q 501 764 525 769 q 511 756 508 758 q 614 675 567 710 q 652 611 646 651 q 634 538 658 571 q 570 499 610 506 q 497 517 531 493 q 386 604 446 556 q 363 624 382 608 q 343 640 344 639 q 333 649 338 644 q 301 617 318 635 q 272 587 299 614 q 239 553 244 560 q 169 524 210 524 q 100 552 129 524 q 71 622 71 581 q 100 690 71 663 q 132 724 106 697 q 163 754 158 751 q 165 758 164 757 q 60 801 119 779 q 3 852 21 815 q 0 927 -14 889 q 51 983 14 965 q 126 986 88 1000 q 235 942 186 964 q 231 1068 239 1026 q 246 1142 224 1108 q 308 1183 268 1175 q 382 1167 349 1190 q 424 1106 415 1144 q 432 1007 432 1060 q 431 947 432 982 q 560 964 494 968 q 627 932 600 963 q 652 861 654 901 q 619 794 650 821 q 549 768 589 767 z "},"+":{"ha":719,"x_min":-17,"x_max":719,"o":"m 417 710 l 417 685 q 417 532 417 582 q 499 522 449 529 q 629 507 586 511 q 632 507 631 507 q 698 472 672 503 q 719 400 724 440 q 684 334 715 360 q 613 313 653 308 l 611 313 q 474 328 565 317 q 425 335 446 332 q 439 204 429 265 q 420 132 444 164 q 356 94 396 100 q 283 112 315 88 q 244 176 250 136 q 228 351 233 258 q 94 344 156 353 q 22 363 54 339 q -16 428 -11 388 q 3 501 -21 468 q 68 539 28 533 q 221 547 140 547 q 221 685 221 593 l 221 710 q 249 778 221 750 q 318 807 278 807 q 388 778 358 807 q 417 710 417 750 z "},",":{"ha":306,"x_min":44,"x_max":304,"o":"m 292 21 q 247 -99 269 -18 q 243 -114 244 -104 q 240 -122 242 -117 q 238 -131 239 -128 q 233 -149 235 -142 q 187 -208 222 -189 q 113 -217 151 -228 q 53 -172 74 -207 q 44 -97 33 -136 q 49 -79 46 -90 l 51 -71 q 53 -62 53 -67 q 58 -46 56 -53 q 125 122 88 61 q 185 167 146 157 q 260 155 225 176 q 304 94 294 133 q 292 21 314 56 z "},"-":{"ha":542,"x_min":31,"x_max":543,"o":"m 128 456 q 233 458 171 456 q 281 461 249 460 q 444 467 389 467 q 515 438 486 467 q 543 369 543 410 q 515 299 543 328 q 444 271 486 271 q 292 265 394 271 q 242 263 258 264 q 128 260 175 260 q 59 288 88 260 q 31 358 31 317 q 59 427 31 399 q 128 456 88 456 z "},".":{"ha":307,"x_min":42,"x_max":307,"o":"m 222 169 q 240 161 232 167 q 295 101 278 139 q 307 21 313 64 q 253 -79 297 -37 q 197 -111 228 -101 q 103 -101 147 -128 q 46 -25 60 -76 q 42 46 38 6 q 64 118 44 89 q 78 135 67 122 l 88 147 q 151 187 111 181 q 222 169 190 193 z "},"/":{"ha":744,"x_min":68,"x_max":746,"o":"m 722 974 q 448 540 585 810 q 258 63 311 271 q 214 2 249 24 q 140 -9 179 -19 q 79 36 100 1 q 68 110 58 71 q 274 629 126 340 q 572 1099 421 918 q 639 1134 599 1131 q 710 1111 679 1138 q 745 1044 742 1085 q 722 974 749 1004 z "},":":{"ha":303,"x_min":69,"x_max":299,"o":"m 271 685 q 265 618 264 657 q 240 547 267 578 q 172 515 213 517 q 101 541 131 514 q 69 608 71 568 q 81 733 67 676 q 126 794 92 774 q 200 804 161 814 q 260 759 239 794 q 271 685 281 724 m 294 249 q 294 243 294 246 l 294 242 q 294 238 294 239 q 296 219 296 225 q 299 210 296 215 q 293 136 311 172 q 236 87 275 100 q 161 92 197 74 q 113 149 125 110 q 101 196 104 172 q 99 232 100 208 l 99 233 l 99 236 q 99 240 99 239 q 125 311 97 282 q 193 342 153 340 q 263 317 233 344 q 294 249 293 289 z "},";":{"ha":311,"x_min":22,"x_max":310,"o":"m 286 658 q 282 644 283 649 l 282 643 q 283 639 282 642 q 286 618 285 624 q 286 611 286 614 q 266 539 292 571 q 200 503 240 507 q 128 524 160 499 q 92 589 96 549 q 92 594 92 592 q 91 601 92 596 q 89 610 90 606 l 89 614 q 86 640 88 629 q 101 722 86 676 q 151 779 115 761 q 226 783 188 797 q 282 733 264 769 q 286 658 300 697 m 297 22 q 244 -74 279 -7 q 201 -154 217 -128 q 142 -200 182 -189 q 68 -191 103 -211 q 22 -131 33 -171 q 32 -57 11 -92 q 71 15 44 -33 l 71 17 q 131 125 108 89 q 191 169 151 160 q 265 157 231 178 q 309 97 300 136 q 297 22 318 57 z "},"<":{"ha":476,"x_min":-3,"x_max":478,"o":"m 450 635 q 332 521 393 576 q 242 443 299 492 q 213 419 222 428 q 289 364 235 401 q 318 345 293 363 q 350 322 343 328 q 422 272 390 294 q 463 208 456 249 q 447 135 469 168 q 383 96 424 103 q 310 111 343 89 q 239 161 278 135 q 207 183 232 165 q 178 203 182 200 q 86 269 114 247 q 19 336 40 306 q -3 454 -19 393 q 50 536 10 496 q 115 594 68 554 q 201 667 171 640 q 310 771 257 717 q 378 801 338 800 q 447 774 418 801 q 477 705 476 746 q 450 635 478 664 z "},"=":{"ha":629,"x_min":26,"x_max":629,"o":"m 114 689 q 319 689 204 697 q 464 675 369 686 q 542 667 517 669 q 608 631 582 663 q 629 560 633 600 q 594 494 625 519 q 522 472 563 468 q 442 481 496 474 q 306 494 351 490 q 133 494 207 501 q 62 516 93 490 q 26 582 31 542 q 48 653 22 622 q 114 689 74 685 m 131 315 q 242 332 181 326 q 344 335 282 335 q 368 335 353 335 q 463 338 432 336 q 534 312 504 339 q 566 244 564 285 q 541 174 568 204 q 474 142 514 144 q 371 139 439 140 q 347 139 354 139 q 175 125 233 138 q 101 137 135 115 q 57 198 67 158 q 69 272 47 238 q 131 315 90 307 z "},">":{"ha":528,"x_min":-6,"x_max":528,"o":"m 153 818 q 169 805 156 815 q 197 783 182 794 q 217 768 213 771 q 319 685 275 722 q 347 663 333 674 q 457 564 417 604 q 499 517 483 538 q 517 486 510 501 q 528 424 532 454 q 503 358 524 390 q 468 315 489 336 q 388 246 439 285 q 343 214 369 232 l 303 185 q 268 158 281 169 q 228 126 236 136 q 160 94 200 96 q 90 119 119 92 q 58 187 60 146 q 82 257 56 228 q 151 317 104 282 q 190 344 165 328 q 229 372 221 367 q 269 401 253 390 q 310 433 293 419 q 221 513 276 465 q 196 535 208 524 q 96 614 153 569 q 76 629 92 617 q 48 652 61 642 q 31 665 35 663 q -5 731 0 690 q 16 802 -10 771 q 82 838 42 833 q 153 818 122 843 z "},"?":{"ha":681,"x_min":-3,"x_max":679,"o":"m 38 982 q 413 1126 247 1131 q 600 1044 529 1124 q 679 825 671 965 q 621 549 689 658 q 456 414 563 456 q 342 388 403 393 q 339 358 340 372 q 328 281 332 315 q 324 254 325 265 q 322 244 324 247 q 301 195 319 217 q 256 165 282 174 q 264 154 260 160 q 297 106 286 133 q 292 1 315 54 q 224 -69 269 -46 q 106 -75 167 -99 q 24 15 40 -49 q 38 117 11 67 q 149 199 75 183 q 129 271 124 231 q 131 281 129 274 l 133 307 l 133 308 l 135 310 l 135 313 l 135 314 l 135 315 l 135 317 l 135 318 l 136 319 l 136 321 l 136 322 l 136 324 l 136 325 l 136 326 l 136 328 l 136 329 l 138 331 l 138 332 l 138 333 l 138 335 l 138 336 l 138 338 l 138 339 l 139 340 l 139 342 l 139 343 l 139 344 l 139 346 l 139 347 l 139 349 l 139 350 l 140 351 l 140 353 l 140 354 l 140 356 l 140 357 l 140 358 l 140 360 l 142 360 l 142 361 l 142 363 l 142 364 l 142 365 l 142 367 l 142 368 l 142 369 l 143 371 l 143 372 l 143 374 l 143 375 l 143 376 l 143 378 l 143 379 l 143 381 l 144 382 l 144 385 l 154 463 q 158 488 157 476 q 160 497 160 496 q 197 562 165 538 q 269 581 229 586 q 274 581 271 581 q 319 582 296 579 q 385 596 356 585 q 454 653 431 614 q 483 813 490 708 q 454 914 479 886 q 408 931 440 931 q 292 903 361 932 q 150 822 224 875 q 77 806 117 799 q 14 845 38 813 q -3 918 -10 878 q 38 982 4 958 z "},"@":{"ha":1089,"x_min":29,"x_max":1083,"o":"m 510 489 q 539 508 522 494 q 567 529 550 518 l 569 531 q 573 535 571 533 q 575 538 575 536 q 608 568 603 557 q 615 592 614 578 q 551 564 578 582 q 510 497 513 535 q 510 489 510 493 m 811 624 q 811 603 811 613 q 819 568 814 582 q 825 558 822 561 q 828 556 826 556 q 840 558 833 554 q 885 611 869 572 q 881 738 906 665 q 733 869 850 828 q 414 833 557 932 q 295 705 346 785 q 219 525 244 625 q 264 263 182 374 q 490 110 339 158 q 763 96 636 64 q 897 200 872 124 q 947 256 911 238 q 1022 262 983 275 q 1078 213 1060 249 q 1083 138 1096 176 q 983 -10 1054 50 q 810 -94 911 -69 q 432 -76 631 -139 q 106 147 219 -8 q 29 572 -31 332 q 133 816 63 707 q 301 993 204 925 q 538 1085 411 1069 q 799 1054 665 1101 q 966 954 897 1018 q 1065 801 1035 890 q 1068 542 1114 663 q 924 381 1025 428 q 815 359 871 356 q 713 396 758 363 q 693 381 706 389 q 690 378 693 379 q 686 375 688 376 l 683 374 q 667 360 672 364 q 544 294 607 308 q 415 310 475 279 q 337 392 364 338 q 314 511 310 447 q 350 628 318 572 q 438 722 382 683 q 756 797 558 810 q 824 764 797 794 q 847 693 850 733 q 811 624 844 650 z "},"A":{"ha":890,"x_min":-39,"x_max":890,"o":"m 278 426 q 281 428 279 428 q 507 426 431 429 q 654 415 586 424 q 600 701 624 633 q 539 835 571 793 q 522 851 529 846 q 501 835 514 847 q 424 729 465 803 q 278 426 339 581 m -4 26 q 13 243 -15 119 q -26 281 -11 257 q -39 333 -40 306 q -8 401 -37 374 q 63 428 22 429 q 68 428 65 428 q 75 449 72 438 q 253 826 146 638 q 369 979 310 926 q 533 1047 447 1051 q 693 954 625 1042 q 786 764 746 886 q 856 392 818 667 q 890 44 890 136 q 862 -24 890 4 q 793 -53 833 -53 q 724 -24 753 -53 q 694 44 694 4 q 681 213 694 88 q 500 231 600 226 q 283 232 429 233 q 211 231 240 231 q 190 47 182 117 q 169 -24 194 7 q 103 -60 143 -56 q 31 -40 63 -65 q -4 26 0 -14 z "},"B":{"ha":846,"x_min":14,"x_max":847,"o":"m 286 406 q 217 388 257 399 q 213 386 215 386 q 213 289 213 342 q 213 172 213 250 q 214 96 214 121 q 244 96 228 96 q 438 129 342 100 q 600 213 544 161 q 651 322 654 260 q 639 381 650 357 q 617 408 631 397 q 513 436 583 433 q 353 421 446 439 q 326 415 339 418 q 286 406 307 411 m 240 597 q 282 607 261 601 q 451 661 378 631 q 603 750 551 701 q 643 815 638 783 q 635 860 647 838 q 577 917 618 892 q 483 954 536 943 q 244 910 354 982 q 240 907 242 908 q 235 790 239 856 q 228 686 232 751 q 221 593 222 608 q 240 597 231 594 m 182 1100 q 524 1146 344 1185 q 693 1076 618 1126 q 807 954 768 1025 q 836 778 853 869 q 738 608 818 685 q 707 582 724 594 q 735 564 722 574 q 847 331 840 483 q 732 67 854 176 q 493 -58 643 -14 q 251 -99 375 -94 q 153 -96 196 -101 q 60 -67 94 -89 q 21 -18 33 -49 q 14 26 13 3 q 17 49 14 38 q 18 53 18 51 q 17 171 18 90 q 17 289 17 249 q 24 579 17 461 q 32 700 26 610 q 39 803 38 764 q 44 1007 47 928 q 71 1077 43 1047 q 139 1108 99 1107 q 182 1100 161 1108 z "},"C":{"ha":918,"x_min":15,"x_max":911,"o":"m 704 789 q 722 907 726 861 q 447 807 579 900 q 240 561 310 710 q 204 308 172 419 q 374 147 236 196 q 528 119 460 118 q 624 142 582 121 q 725 251 689 174 q 779 303 742 289 q 853 301 817 318 q 905 247 890 285 q 903 171 919 208 q 833 61 875 110 q 710 -35 781 0 q 310 -37 542 -118 q 119 78 194 3 q 15 256 44 153 q 63 644 -36 438 q 335 967 154 839 q 758 1103 533 1107 q 864 1056 819 1101 q 911 963 899 1019 q 890 732 933 867 q 843 674 879 693 q 768 667 807 656 q 710 715 729 679 q 704 789 692 751 z "},"D":{"ha":933,"x_min":3,"x_max":924,"o":"m 197 110 q 236 108 215 108 q 438 128 338 106 q 632 210 557 154 q 732 363 713 271 q 707 593 754 474 q 575 788 663 707 q 414 872 492 863 q 303 831 347 881 q 274 807 290 815 q 222 435 242 610 q 197 169 201 268 q 197 110 196 135 m 194 997 q 439 1067 299 1085 q 706 932 578 1049 q 889 665 828 821 q 924 324 958 492 q 749 53 890 158 q 481 -64 642 -28 q 232 -87 357 -92 q 138 -79 178 -86 q 99 -69 115 -75 q 49 -42 68 -60 q 11 21 22 -18 q 3 69 6 42 q 3 178 0 111 q 26 458 7 285 q 92 915 54 690 q 128 976 99 953 q 194 997 157 999 z "},"E":{"ha":949,"x_min":-29,"x_max":949,"o":"m 842 875 q 486 881 722 883 q 269 874 353 881 q 210 868 233 871 q 194 788 201 835 q 169 567 176 682 q 333 597 235 575 q 393 610 353 601 q 529 639 482 629 q 671 661 607 654 q 742 640 711 665 q 778 575 774 615 q 758 503 783 535 q 693 467 733 471 q 435 418 607 457 q 375 406 394 410 q 168 368 250 379 q 185 235 172 290 q 211 163 196 186 q 218 154 215 157 q 547 156 364 126 q 643 172 589 163 q 693 182 664 176 q 717 188 694 183 q 744 193 739 192 q 833 211 797 204 q 907 195 874 218 q 948 132 940 172 q 933 58 956 92 q 869 18 910 25 q 783 1 835 11 q 756 -5 778 0 q 732 -10 733 -10 q 681 -19 701 -15 q 578 -37 622 -31 q 176 -36 360 -72 q 47 56 97 -21 q -7 190 13 107 q -29 511 -36 317 q 0 818 -24 669 q 24 929 11 885 q 38 971 31 954 q 79 1028 53 1008 q 125 1050 97 1042 q 164 1058 142 1056 q 254 1069 200 1065 q 485 1076 344 1076 q 854 1071 726 1079 q 922 1038 894 1068 q 946 967 949 1007 q 913 900 943 926 q 842 875 882 874 z "},"F":{"ha":892,"x_min":14,"x_max":893,"o":"m 797 889 q 747 888 769 888 q 374 868 478 879 q 228 835 261 857 q 218 825 221 831 q 211 797 214 817 q 210 728 208 774 q 213 679 210 708 q 213 660 213 674 q 215 635 214 647 q 215 619 215 622 q 217 585 217 600 q 218 564 218 574 q 232 563 225 564 q 374 574 290 563 q 635 624 533 594 q 710 617 674 636 q 757 558 746 597 q 749 483 768 519 q 692 436 731 447 q 399 379 574 401 q 236 367 304 368 q 240 314 239 339 q 238 28 254 144 q 199 -37 232 -12 q 126 -56 167 -61 q 62 -17 86 -50 q 43 56 38 15 q 46 299 57 150 q 36 404 43 335 q 22 575 25 519 q 19 608 21 590 q 19 623 19 610 q 17 649 18 636 q 17 668 17 663 q 14 722 15 700 q 17 821 13 782 q 122 1000 32 942 q 353 1063 194 1046 q 742 1082 464 1075 q 792 1085 764 1083 q 862 1057 832 1085 q 892 989 892 1029 q 865 919 893 949 q 797 889 838 889 z "},"G":{"ha":892,"x_min":8,"x_max":890,"o":"m 722 772 q 492 836 613 865 q 290 686 376 807 q 204 429 203 564 q 314 200 207 289 q 431 140 360 164 q 571 125 510 114 q 658 183 629 135 q 696 390 700 251 q 601 406 663 401 q 468 406 547 408 q 461 406 467 406 q 450 406 456 406 l 446 406 q 428 406 433 406 q 358 434 388 406 q 329 503 329 463 q 358 572 329 543 q 428 601 388 601 q 439 601 431 601 l 444 601 q 454 601 449 601 q 463 601 460 601 q 614 600 550 604 q 767 572 707 594 q 842 528 813 556 q 890 426 886 486 q 825 81 904 208 q 604 -68 749 -43 q 369 -46 494 -87 q 190 50 264 -11 q 8 425 13 196 q 131 800 6 625 q 273 944 192 886 q 444 1026 354 1003 q 653 1026 549 1053 q 849 922 757 1000 q 884 856 881 896 q 861 784 888 815 q 794 749 835 753 q 722 772 754 746 z "},"H":{"ha":886,"x_min":26,"x_max":883,"o":"m 831 947 q 825 719 832 886 q 818 522 819 593 q 829 276 817 375 q 876 100 843 161 q 883 25 894 64 q 835 -33 871 -14 q 760 -40 799 -51 q 703 8 722 -28 q 635 251 653 101 q 624 419 625 326 q 229 371 453 406 q 222 38 222 181 q 193 -33 222 -4 q 124 -61 164 -61 q 55 -33 83 -61 q 26 38 26 -4 q 32 310 26 158 q 43 581 35 400 q 44 606 44 597 q 58 981 56 849 q 89 1049 60 1021 q 158 1076 118 1076 q 227 1046 199 1075 q 254 976 256 1017 q 240 596 251 842 q 239 571 239 589 q 625 615 453 603 q 629 728 626 658 q 635 944 635 889 q 663 1014 635 985 q 731 1044 690 1043 q 801 1016 772 1044 q 831 947 831 988 z "},"I":{"ha":561,"x_min":-64,"x_max":563,"o":"m 38 1053 q 189 1056 86 1051 q 200 1056 196 1056 q 410 1053 336 1061 q 476 1018 450 1050 q 498 946 501 986 q 463 880 494 906 q 390 858 431 854 q 340 863 367 861 q 353 596 349 744 q 357 335 354 508 q 361 99 358 174 q 464 97 428 97 q 533 68 504 97 q 563 -1 563 39 q 533 -70 563 -42 q 464 -99 504 -99 q 343 -97 424 -99 q 276 -94 299 -96 q 61 -106 142 -92 q -12 -89 21 -112 q -53 -26 -46 -65 q -36 47 -60 14 q 28 88 -12 81 q 164 100 90 99 q 161 332 163 175 q 157 590 158 504 q 144 857 153 740 q 29 857 78 856 q -38 888 -11 858 q -64 958 -65 918 q -33 1026 -62 999 q 38 1053 -3 1054 z "},"J":{"ha":793,"x_min":-60,"x_max":793,"o":"m 131 299 q 236 165 156 193 q 456 196 326 135 q 547 286 522 228 q 564 444 572 347 q 515 660 556 535 q 433 883 488 751 q 306 882 361 878 q 238 914 265 883 q 213 985 211 944 q 246 1052 215 1025 q 317 1076 276 1079 q 436 1081 364 1075 q 482 1085 451 1082 q 589 1093 553 1092 q 706 1092 653 1097 q 772 1056 746 1088 q 793 985 797 1025 q 758 919 789 944 q 686 897 726 893 q 638 899 664 899 q 703 718 678 799 q 758 461 749 574 q 728 211 772 315 q 539 19 672 82 q 174 -19 339 -76 q 25 81 85 11 q -60 254 -35 151 q -47 328 -68 293 q 13 372 -26 363 q 88 360 53 381 q 131 299 122 339 z "},"K":{"ha":831,"x_min":-14,"x_max":828,"o":"m 783 839 q 701 790 753 819 q 692 785 699 789 q 679 778 685 781 l 674 774 q 486 660 547 701 q 338 535 394 597 q 283 482 314 508 q 236 442 268 468 q 222 428 228 433 q 247 410 232 419 q 455 283 325 354 q 686 169 585 211 q 739 115 724 153 q 738 40 754 78 q 685 -12 722 3 q 610 -11 647 -28 q 392 94 514 29 q 179 219 271 158 q 192 53 182 131 q 172 -19 197 13 q 107 -56 147 -51 q 35 -37 67 -61 q -3 28 3 -12 q -14 521 -26 224 q -6 693 -11 581 q 7 963 6 876 q 38 1032 8 1004 q 108 1058 67 1060 q 176 1028 149 1057 q 203 958 204 999 q 190 682 201 868 q 190 664 190 672 q 194 668 192 665 q 376 821 267 746 q 575 943 443 867 l 581 947 q 594 954 588 950 q 603 960 600 958 q 683 1007 653 989 q 757 1017 718 1028 q 817 972 796 1007 q 828 899 838 938 q 783 839 818 860 z "},"L":{"ha":811,"x_min":-11,"x_max":813,"o":"m 196 964 q 206 803 208 903 q 194 625 204 751 q 188 522 190 560 q 204 229 176 324 q 245 154 219 179 q 317 122 271 129 q 528 110 388 111 q 544 110 533 110 q 722 104 663 110 q 789 71 763 101 q 812 -1 815 40 q 778 -68 808 -42 q 707 -90 747 -94 q 543 -86 654 -86 q 526 -86 532 -86 q 286 -71 372 -85 q 107 15 178 -54 q 17 174 46 76 q -11 351 -6 249 q -8 535 -14 428 q 0 640 -6 574 q 10 808 8 761 q 4 922 13 885 q 17 997 -4 963 q 78 1039 39 1031 q 152 1026 118 1047 q 196 964 186 1004 z "},"M":{"ha":1061,"x_min":-69,"x_max":1058,"o":"m -69 25 q -49 242 -75 78 q 8 558 -26 381 q 72 853 43 733 q 100 951 89 917 q 114 988 107 974 q 131 1014 121 1003 q 158 1039 142 1029 q 236 1049 194 1060 q 279 1024 260 1042 q 292 1008 286 1017 q 310 983 300 999 q 351 918 326 960 q 458 731 392 850 q 468 714 463 722 q 519 619 492 669 q 547 697 533 660 q 551 710 549 704 q 622 903 596 833 q 647 967 638 944 q 658 990 653 982 q 669 1010 664 1001 q 679 1019 674 1015 q 701 1036 689 1029 q 760 1047 729 1050 q 825 1010 800 1042 q 842 981 835 997 q 847 964 844 974 q 857 928 851 951 q 883 821 867 890 q 953 510 907 721 q 956 499 956 503 q 971 428 957 490 q 989 350 985 365 q 1018 217 1007 268 q 1058 47 1049 81 q 1049 -27 1069 8 q 990 -74 1029 -62 q 916 -65 951 -85 q 869 -6 881 -44 q 828 174 858 33 q 797 308 815 225 q 781 386 794 324 q 764 457 767 449 q 763 467 763 464 q 728 622 742 560 q 663 436 697 536 q 639 371 650 403 q 633 353 636 361 q 632 349 632 350 l 631 347 q 583 291 618 308 q 510 285 547 274 q 453 333 472 296 q 451 335 451 333 q 449 339 450 336 q 439 357 444 347 q 404 422 422 389 q 296 619 346 529 q 288 635 292 628 q 242 715 263 679 q 200 519 222 626 q 144 211 165 346 q 129 96 133 142 q 125 43 124 54 q 103 -28 129 3 q 36 -63 76 -60 q -35 -41 -4 -67 q -69 25 -67 -15 z "},"N":{"ha":890,"x_min":-31,"x_max":892,"o":"m 13 10 q -7 367 0 143 q -10 522 -7 414 q -17 757 -12 683 q -26 906 -19 849 q -31 939 -32 922 q -9 1006 -33 976 q 53 1042 15 1036 q 124 1025 92 1047 q 163 965 156 1003 q 174 947 168 956 q 235 846 204 899 q 425 542 338 679 q 446 510 435 525 q 692 143 624 228 q 696 139 693 142 q 692 215 694 171 q 691 228 692 217 q 690 250 690 239 q 689 264 689 261 q 685 321 686 307 q 681 394 683 361 q 667 565 674 489 q 643 746 656 672 q 614 850 629 824 q 608 925 596 886 q 656 983 619 964 q 731 989 692 1001 q 788 940 769 976 q 835 781 815 888 q 861 585 850 700 q 876 407 869 506 q 881 333 878 374 l 883 275 q 885 263 883 272 q 887 242 886 253 q 888 229 888 232 q 892 133 892 174 q 883 29 892 72 q 867 -26 876 -1 q 824 -85 850 -62 q 736 -115 786 -115 q 658 -92 697 -114 q 538 21 604 -61 q 279 404 464 114 q 260 436 269 421 q 186 554 224 493 q 186 526 186 542 q 189 371 189 418 q 207 29 194 154 q 185 -44 211 -12 q 119 -78 160 -75 q 47 -56 79 -82 q 13 10 15 -31 z "},"O":{"ha":953,"x_min":6,"x_max":951,"o":"m 732 963 q 758 943 747 954 q 911 700 860 836 q 951 428 963 564 q 853 161 939 278 q 619 -17 767 44 q 425 -61 522 -56 q 211 -11 301 -67 q 6 314 40 92 q 56 697 -25 504 q 301 986 140 900 q 707 981 494 1092 q 732 963 721 974 m 617 807 q 394 814 496 869 q 236 621 294 760 q 199 344 178 481 q 311 157 219 213 q 415 135 351 132 q 544 164 479 138 q 695 276 642 204 q 757 444 749 349 q 727 633 764 538 q 618 806 690 729 l 617 807 z "},"P":{"ha":915,"x_min":-17,"x_max":911,"o":"m 296 315 q 294 64 304 169 q 260 -3 292 24 q 189 -26 229 -29 q 122 9 149 -22 q 100 81 96 40 q 86 471 114 243 q -11 865 56 728 q -16 941 -29 903 q 33 997 -3 979 q 94 1004 63 1011 q 121 1010 114 1008 q 188 1021 158 1017 q 328 1042 265 1033 q 624 1042 525 1065 q 771 967 699 1024 q 879 842 843 911 q 911 658 928 744 q 818 504 894 571 q 676 417 763 456 q 518 363 608 388 q 365 328 450 344 q 296 315 332 321 m 213 826 q 279 511 256 692 q 329 521 301 515 q 467 551 406 535 q 689 651 625 594 q 719 693 714 674 q 706 751 724 717 q 651 813 689 782 q 578 851 613 843 q 351 847 514 867 q 219 828 293 840 q 213 826 217 828 z "},"Q":{"ha":1018,"x_min":-6,"x_max":1008,"o":"m 533 1071 q 713 1029 625 1075 q 846 925 783 993 q 992 690 944 819 q 1008 444 1036 569 q 911 235 985 335 q 865 179 890 207 q 919 144 892 163 q 963 84 954 124 q 949 10 971 44 q 888 -33 928 -25 q 814 -21 849 -42 q 707 50 757 17 q 564 -14 636 7 q 344 -24 447 -47 q 160 75 240 0 q 47 235 89 140 q -6 438 4 329 q 12 652 -15 547 q 100 842 39 757 q 522 1071 244 1043 q 533 1071 528 1071 m 515 474 q 694 303 579 393 q 704 294 700 299 q 754 351 732 322 q 808 622 856 490 q 703 792 775 715 q 539 875 621 879 l 538 875 q 258 728 350 856 q 189 454 175 613 q 223 320 196 382 q 293 218 250 258 q 508 174 381 136 q 532 182 521 178 q 361 351 428 269 q 341 424 336 383 q 377 490 346 464 q 449 510 408 515 q 515 474 489 506 z "},"R":{"ha":875,"x_min":21,"x_max":876,"o":"m 228 481 q 547 581 424 508 q 631 649 601 614 q 653 694 651 674 q 643 725 654 708 q 571 781 622 754 q 253 860 460 838 q 249 746 251 808 q 235 557 244 683 q 229 492 231 514 q 228 481 229 486 m 149 1065 q 661 954 481 1047 q 801 839 754 906 q 847 676 856 763 q 646 413 833 524 q 503 346 582 375 q 843 96 672 244 q 876 28 874 68 q 852 -43 879 -12 q 785 -76 825 -74 q 714 -53 744 -79 q 451 147 583 61 q 217 271 319 233 q 217 250 217 261 q 233 24 215 124 q 217 -50 240 -17 q 153 -90 193 -83 q 81 -74 114 -97 q 40 -10 47 -50 q 21 251 19 107 q 33 507 21 351 q 39 572 36 529 q 53 757 50 697 q 57 921 58 849 q 46 972 44 944 q 77 1040 47 1013 q 149 1065 107 1067 z "},"S":{"ha":875,"x_min":-7,"x_max":874,"o":"m 94 190 q 114 190 94 190 q 163 160 135 189 q 268 115 190 131 q 453 114 357 97 q 611 176 551 131 q 679 286 671 221 q 672 293 676 289 q 650 307 664 300 q 572 338 622 321 q 464 367 536 349 q 440 372 446 371 q 308 410 356 394 q 183 464 233 435 q 79 565 113 506 q 61 726 40 639 q 201 919 86 833 q 429 1019 306 999 q 688 972 579 1046 q 832 697 811 886 q 810 626 836 657 q 744 590 785 594 q 673 610 704 585 q 638 676 642 636 q 613 769 631 732 q 576 811 597 796 q 463 826 535 839 q 318 764 385 814 q 251 682 261 719 q 251 660 247 667 q 283 632 258 647 q 369 596 314 614 q 489 563 410 582 l 513 557 q 631 524 590 536 q 742 481 697 503 q 839 400 806 447 q 874 260 883 338 q 729 19 853 113 q 485 -79 631 -56 q 231 -76 354 -101 q 21 25 92 -50 q -6 95 -7 54 q 24 164 -6 136 q 94 190 53 192 z "},"T":{"ha":924,"x_min":-6,"x_max":924,"o":"m 101 1028 q 572 1025 282 1008 q 660 1036 601 1026 q 674 1038 669 1038 q 747 1047 718 1044 q 833 1049 793 1051 q 900 1014 874 1044 q 924 943 926 983 q 890 876 921 903 q 818 853 858 850 q 704 844 778 857 q 690 843 700 844 q 613 832 639 833 q 636 594 629 726 q 632 133 647 383 q 625 47 629 88 q 624 22 624 33 q 622 17 622 19 l 622 14 q 587 -52 618 -26 q 515 -74 556 -78 q 449 -38 475 -69 q 428 33 424 -7 l 428 35 q 428 40 428 38 q 431 63 429 50 q 436 146 433 101 q 440 583 450 385 q 415 822 433 721 q 82 833 226 818 q 16 869 42 838 q -6 940 -10 900 q 30 1006 -1 981 q 101 1028 61 1032 z "},"U":{"ha":944,"x_min":3,"x_max":933,"o":"m 233 890 q 213 733 229 839 q 197 617 201 656 q 200 394 182 482 q 265 271 214 328 q 386 186 317 214 q 514 172 453 160 q 624 240 578 185 q 739 557 713 346 q 738 932 761 729 q 759 1004 733 972 q 825 1040 785 1036 q 897 1019 865 1044 q 933 954 928 994 q 933 532 958 726 q 774 115 899 265 q 553 -19 683 7 q 315 4 436 -43 q 117 143 200 49 q 8 354 33 238 q 3 638 -15 472 q 19 761 7 681 q 38 908 33 863 q 73 974 42 949 q 144 997 104 1000 q 211 962 185 993 q 233 890 238 931 z "},"V":{"ha":793,"x_min":14,"x_max":790,"o":"m 117 997 q 181 967 154 994 q 210 903 208 940 q 211 899 210 901 q 217 871 213 888 q 244 779 226 836 q 335 513 276 676 q 346 479 340 496 q 401 328 372 407 q 460 479 432 407 q 482 538 472 510 q 600 888 574 781 q 645 947 610 926 q 719 958 681 968 q 779 914 758 949 q 790 840 800 879 q 665 468 761 722 q 643 410 654 440 q 536 138 594 282 q 500 50 517 92 q 490 26 494 38 q 488 19 489 22 q 486 18 488 18 l 486 17 q 431 -37 471 -22 q 426 -39 428 -37 q 394 -43 411 -43 q 363 -37 378 -43 q 358 -36 361 -36 q 304 21 319 -19 q 304 24 304 22 q 301 29 303 26 q 292 54 297 40 q 260 142 276 96 q 161 414 207 289 q 150 447 156 431 q 58 719 92 615 q 28 821 38 782 q 14 903 13 876 q 46 971 15 943 q 117 997 76 999 z "},"W":{"ha":1446,"x_min":-6,"x_max":1446,"o":"m 182 999 q 182 996 182 997 q 185 989 183 992 q 194 960 189 975 q 226 858 210 911 q 329 550 282 690 q 344 507 338 528 q 442 233 404 332 q 444 226 443 229 q 533 528 483 318 q 545 582 533 532 q 570 685 557 632 q 588 760 583 739 q 644 942 619 886 q 675 994 658 974 q 706 1024 689 1013 q 763 1043 732 1040 q 824 1031 801 1046 q 863 986 846 1017 q 878 949 871 971 q 901 863 889 918 q 949 619 922 772 q 1003 267 983 418 q 1050 382 1025 318 q 1189 794 1118 560 q 1235 953 1215 883 q 1247 1003 1243 983 q 1250 1018 1250 1013 l 1251 1018 q 1287 1084 1256 1058 q 1358 1106 1318 1110 q 1424 1069 1399 1101 q 1446 997 1450 1038 q 1376 738 1440 951 q 1233 313 1303 496 q 1067 -14 1136 60 q 1033 -42 1050 -31 q 979 -61 1007 -57 q 863 -7 907 -71 q 815 182 824 47 q 756 585 810 274 q 753 606 754 596 q 740 552 747 582 q 729 504 733 522 q 724 483 725 486 q 624 147 669 254 q 546 21 588 64 q 475 -25 514 -12 q 376 -22 425 -40 q 331 11 350 -12 q 317 31 324 19 q 299 65 308 44 q 260 163 283 101 q 158 444 219 265 q 144 488 151 465 q 40 797 96 628 q 7 900 24 850 q -1 928 3 915 q -4 936 -3 932 q -6 939 -4 938 q 1 1013 -17 976 q 58 1061 19 1049 q 133 1056 97 1074 q 182 999 169 1038 z "},"X":{"ha":900,"x_min":-15,"x_max":900,"o":"m 165 994 q 351 696 238 860 q 411 610 381 653 q 482 697 446 654 q 735 975 611 857 q 804 1002 764 1003 q 873 972 844 1001 q 900 903 901 943 q 869 833 899 863 q 633 574 756 724 q 532 446 585 514 q 565 403 547 425 q 657 286 594 363 q 663 279 660 282 q 750 172 701 231 q 778 138 764 154 q 786 128 783 132 q 789 125 788 126 l 789 124 q 811 53 815 93 q 776 -14 807 13 q 704 -36 744 -40 q 639 -1 664 -32 l 638 0 q 636 3 636 1 q 628 13 632 7 q 599 47 614 29 q 510 156 550 107 q 504 163 507 160 q 410 283 442 240 l 400 271 q 386 250 392 258 q 199 7 269 94 q 133 -29 174 -25 q 62 -8 93 -33 q 26 57 31 17 q 46 129 21 97 q 229 367 115 214 q 243 388 235 375 q 258 408 256 404 q 288 447 275 429 q 190 583 235 518 q -8 903 69 758 q -15 976 -26 938 q 33 1035 -3 1015 q 107 1042 68 1054 q 165 994 146 1031 z "},"Y":{"ha":899,"x_min":8,"x_max":897,"o":"m 881 869 q 793 729 839 813 q 707 567 760 671 q 691 535 704 561 q 676 504 678 510 q 518 221 581 318 q 311 -24 418 64 q 239 -46 279 -50 q 173 -10 199 -42 q 151 61 147 21 q 186 128 156 101 q 353 326 269 196 q 388 381 371 353 q 358 407 371 390 q 300 481 338 435 q 233 564 249 544 q 119 717 163 653 q 29 889 58 808 q 8 957 15 924 q 20 1031 -1 996 q 81 1074 42 1065 q 156 1062 121 1083 q 199 1000 190 1040 q 213 957 204 979 q 282 825 235 899 q 386 686 321 768 l 453 604 q 486 563 472 581 q 501 593 493 578 q 517 624 504 599 q 533 656 531 650 q 622 825 588 763 q 721 983 674 917 q 785 1024 744 1017 q 858 1007 825 1031 q 897 943 890 983 q 881 869 904 903 z "},"Z":{"ha":942,"x_min":-31,"x_max":942,"o":"m 85 986 q 213 975 136 978 q 363 974 260 974 q 407 974 392 974 q 621 967 540 975 q 831 918 743 954 q 856 903 844 913 q 860 901 857 903 q 863 897 863 899 q 894 850 886 878 q 894 794 901 822 q 878 757 890 774 q 860 738 869 747 q 835 718 849 728 q 815 708 825 713 q 652 576 769 675 q 431 382 535 476 q 231 186 304 267 q 478 179 319 182 q 814 178 633 176 q 825 178 818 178 q 836 178 832 178 l 842 178 l 843 178 q 913 149 883 178 q 942 81 942 121 q 913 11 942 40 q 844 -18 885 -18 l 843 -18 l 838 -18 q 826 -18 833 -18 q 815 -18 818 -18 q 475 -17 632 -19 q 135 -1 222 -12 q 125 -1 133 -1 q 93 0 108 -1 q 54 4 71 1 q 26 13 39 8 q 1 28 13 19 q -31 71 -21 44 q -29 160 -47 113 q -4 210 -21 183 q 71 303 22 249 q 299 526 153 393 q 583 774 439 654 q 407 778 518 779 q 363 778 393 778 q 206 779 257 778 q 51 794 117 782 q -12 834 11 801 q -29 907 -36 867 q 11 971 -22 947 q 85 986 44 994 z "},"[":{"ha":493,"x_min":56,"x_max":493,"o":"m 357 889 q 297 888 339 888 q 264 889 275 889 q 261 757 263 839 q 260 676 261 728 q 260 589 260 625 l 260 553 q 259 519 260 551 q 257 443 258 488 q 254 372 256 399 q 251 178 251 265 q 251 -68 249 22 q 253 -112 251 -93 q 282 -112 265 -112 q 335 -112 301 -112 q 406 -111 393 -110 q 472 -147 446 -115 q 493 -219 497 -179 q 458 -284 489 -258 q 389 -307 428 -310 l 386 -307 l 375 -307 q 360 -307 372 -307 q 349 -307 357 -307 l 340 -307 q 282 -308 304 -308 q 200 -306 232 -308 q 158 -299 175 -303 q 132 -290 144 -296 q 97 -265 113 -281 q 72 -226 81 -250 q 65 -204 68 -217 q 61 -167 63 -189 q 56 -74 57 -132 q 56 181 53 21 q 58 378 56 269 q 61 448 60 404 q 63 523 63 492 q 64 556 64 554 q 65 758 65 693 q 68 900 67 849 q 69 950 68 932 q 71 968 69 961 q 72 981 71 975 q 100 1033 78 1011 q 189 1078 133 1067 q 261 1083 219 1083 q 300 1083 275 1085 q 338 1083 331 1083 q 409 1062 378 1088 q 444 996 440 1036 q 423 924 449 956 q 357 889 397 893 z "},"\\":{"ha":660,"x_min":60,"x_max":656,"o":"m 242 1024 q 440 551 311 867 q 443 544 442 547 q 653 51 579 215 q 655 -23 669 15 q 603 -78 640 -61 q 528 -80 567 -94 q 474 -29 490 -65 q 263 469 399 138 q 260 476 261 474 q 63 944 131 790 q 60 1019 46 981 q 112 1074 75 1057 q 187 1076 149 1090 q 242 1024 225 1061 z "},"]":{"ha":543,"x_min":92,"x_max":543,"o":"m 92 1015 q 133 1075 100 1053 q 206 1090 167 1097 q 210 1090 207 1090 q 229 1089 215 1089 q 238 1088 231 1089 q 247 1088 246 1088 q 267 1086 258 1088 q 324 1081 301 1085 q 357 1074 342 1078 q 379 1064 368 1069 q 411 1038 399 1054 q 450 957 436 1007 q 465 875 460 922 q 475 686 475 801 q 475 546 476 635 q 475 413 474 435 l 481 378 q 496 294 488 342 q 508 224 504 247 q 522 132 517 175 q 543 -69 542 7 q 539 -156 546 -121 q 525 -203 535 -182 q 467 -260 506 -243 q 378 -287 428 -278 q 297 -299 347 -294 q 286 -300 294 -300 q 221 -310 240 -306 q 147 -294 181 -317 q 106 -231 114 -271 q 122 -157 99 -190 q 185 -117 146 -124 q 265 -106 213 -111 q 276 -104 272 -106 q 349 -94 324 -100 q 347 -75 349 -85 q 329 104 346 -11 q 315 192 322 144 q 292 321 307 239 q 279 397 281 385 q 279 549 278 428 q 279 685 281 636 q 271 851 279 789 q 265 890 269 874 q 256 892 260 890 q 238 892 247 892 q 228 892 236 892 q 219 893 221 893 q 167 899 182 894 q 106 941 128 907 q 92 1015 83 975 z "},"^":{"ha":742,"x_min":67,"x_max":742,"o":"m 75 893 q 161 1006 106 947 q 254 1093 197 1043 q 333 1154 310 1140 q 389 1176 361 1172 q 464 1164 428 1182 q 499 1139 482 1154 q 519 1117 508 1131 q 528 1106 521 1115 q 538 1096 536 1097 q 558 1072 549 1083 q 708 933 619 1010 q 742 867 739 907 q 718 795 744 826 q 651 761 692 764 q 581 785 611 758 q 418 938 485 868 q 399 958 408 947 q 383 944 392 953 q 247 799 278 854 q 189 751 228 763 q 115 760 150 740 q 67 818 79 779 q 75 893 56 857 z "},"_":{"ha":951,"x_min":-79,"x_max":950,"o":"m 17 -50 q 179 -54 85 -49 q 347 -68 232 -58 q 425 -75 397 -72 q 646 -86 561 -86 q 831 -67 756 -86 q 906 -78 871 -57 q 950 -138 940 -99 q 939 -212 960 -178 q 879 -257 918 -247 q 647 -282 781 -281 q 408 -271 553 -282 q 329 -264 379 -268 q 167 -250 217 -253 q 22 -246 82 -244 q -48 -219 -18 -247 q -78 -151 -78 -192 q -51 -81 -79 -110 q 17 -50 -24 -51 z "},"`":{"ha":413,"x_min":94,"x_max":413,"o":"m 274 1138 q 375 1019 321 1060 q 412 954 407 994 q 392 882 417 914 q 328 844 368 850 q 256 864 288 839 q 107 1035 172 926 q 95 1109 86 1069 q 139 1169 104 1149 q 213 1181 174 1190 q 274 1138 253 1172 z "},"a":{"ha":653,"x_min":-19,"x_max":654,"o":"m 449 543 q 256 503 325 544 q 176 364 182 460 q 193 196 171 260 q 235 138 210 150 q 306 142 260 126 q 458 246 374 167 q 458 329 458 290 q 449 543 457 446 m 639 615 q 654 332 651 483 q 654 150 654 272 q 653 46 653 83 q 624 -23 653 6 q 556 -51 596 -51 q 503 -36 526 -51 q 467 4 479 -21 q 372 -42 418 -25 q 149 -37 249 -86 q 10 129 53 10 q -19 375 -28 232 q 156 672 -7 575 q 536 735 299 757 q 592 712 568 732 q 622 661 615 692 q 639 615 636 640 z "},"b":{"ha":779,"x_min":4,"x_max":757,"o":"m 233 788 q 564 783 411 872 q 682 676 632 744 q 757 524 732 608 q 746 194 810 349 q 639 49 710 107 q 471 -31 568 -10 q 275 -37 414 -42 q 161 -28 208 -35 q 110 -18 132 -24 q 51 10 75 -8 q 11 83 19 35 q 6 125 7 100 q 4 231 4 164 q 18 528 7 346 q 64 1026 44 935 q 106 1088 72 1067 q 180 1101 140 1110 q 242 1059 219 1093 q 256 985 264 1025 q 233 788 249 953 m 200 164 q 282 158 235 160 q 381 158 333 157 q 415 160 401 158 q 426 161 422 161 l 431 161 q 565 269 528 182 q 569 468 601 360 q 467 614 539 574 q 397 632 435 632 q 300 601 353 631 q 246 563 264 581 q 236 550 239 556 q 235 547 235 549 q 211 483 235 511 q 200 228 203 328 q 200 164 200 190 z "},"c":{"ha":731,"x_min":-29,"x_max":731,"o":"m 542 536 q 321 569 419 606 q 190 442 233 538 q 178 265 147 347 q 315 156 208 182 q 450 146 401 133 q 575 214 497 156 q 647 231 607 238 q 712 192 688 225 q 730 120 736 160 q 692 56 724 81 q 493 -46 581 -25 q 268 -35 399 -67 q 97 51 167 -10 q -6 199 26 111 q -28 359 -33 275 q 13 522 -24 443 q 111 663 49 603 q 253 753 174 724 q 639 706 438 822 q 684 647 674 686 q 674 572 694 607 q 615 527 654 538 q 542 536 576 517 z "},"d":{"ha":789,"x_min":-11,"x_max":789,"o":"m 593 122 q 593 140 593 129 q 589 181 592 156 q 585 207 588 190 q 584 211 585 208 q 583 217 583 214 l 582 221 q 581 235 581 229 q 574 279 576 260 q 560 451 567 338 q 560 454 560 453 q 554 535 556 508 q 303 536 408 601 q 220 444 251 504 q 185 307 189 385 q 194 211 182 250 q 224 163 204 182 q 335 117 257 129 q 461 111 378 111 l 485 111 q 589 121 557 110 q 593 122 592 121 m 543 747 q 543 758 543 753 q 543 775 543 764 q 540 888 543 851 q 532 994 539 947 q 551 1066 526 1033 q 615 1104 575 1099 q 688 1085 656 1110 q 725 1022 719 1061 q 736 896 733 965 q 739 776 738 856 q 739 760 739 765 q 746 593 740 651 q 754 465 750 550 l 756 464 q 768 304 761 356 q 774 265 769 288 q 776 250 775 258 q 778 236 778 239 q 782 208 781 219 q 789 153 788 176 q 767 26 793 78 q 649 -65 732 -39 q 483 -85 588 -86 l 463 -85 q 390 -83 417 -85 q 306 -76 344 -82 q 193 -47 243 -67 q 85 25 129 -21 q -11 317 -19 129 q 51 543 -4 442 q 199 701 106 644 q 543 747 353 797 z "},"e":{"ha":690,"x_min":0,"x_max":686,"o":"m 207 394 q 242 396 222 394 q 292 403 258 399 q 378 413 350 411 q 478 453 438 417 q 494 475 490 464 q 488 513 497 490 q 458 560 472 547 q 443 567 451 565 q 296 528 406 572 q 257 494 278 521 q 219 428 236 467 q 207 394 213 411 m 206 199 q 258 142 222 158 q 347 129 293 126 q 514 169 419 133 q 590 167 553 183 q 641 112 626 150 q 638 37 656 74 q 583 -14 621 0 q 176 -36 333 -108 q 58 64 103 -1 q 0 215 13 129 q 39 503 -22 357 q 222 710 106 663 q 347 751 297 740 q 472 761 417 769 q 592 703 540 750 q 667 592 636 663 q 685 434 701 508 q 607 306 669 360 q 506 244 564 268 q 390 218 449 221 q 319 208 371 217 q 261 201 283 204 q 206 199 232 199 z "},"f":{"ha":632,"x_min":-31,"x_max":631,"o":"m 138 22 q 136 38 136 28 q 133 76 133 63 q 133 97 133 86 q 135 114 133 100 q 135 132 135 126 q 126 225 135 161 q 118 290 124 250 l 117 297 q 114 313 115 304 q 111 332 113 322 q 108 351 110 342 q 107 365 107 361 q 85 544 92 472 q 83 565 83 554 q 33 576 58 569 q -24 625 -4 589 q -31 699 -43 661 q 11 754 -21 735 q 79 767 43 774 q 94 872 83 824 q 157 1018 114 960 q 296 1115 211 1090 q 464 1124 388 1143 q 615 1015 558 1101 q 630 942 638 982 q 588 880 622 903 q 515 865 554 857 q 453 907 475 874 q 418 933 438 929 q 351 928 393 940 q 314 901 329 921 q 285 829 296 876 q 275 749 276 793 q 279 749 278 749 q 385 747 349 749 q 501 731 449 743 q 561 686 540 721 q 572 612 582 651 q 528 551 563 572 q 453 540 493 531 q 374 551 419 549 q 281 553 344 553 q 301 393 288 489 q 303 375 301 388 q 307 351 306 363 q 310 329 308 339 q 311 318 311 319 q 321 250 318 276 q 331 131 331 172 q 331 107 331 122 q 329 93 329 94 q 329 81 329 86 q 331 53 329 72 q 332 36 332 42 q 308 -35 335 -6 q 241 -68 282 -65 q 170 -44 200 -71 q 138 22 140 -18 z "},"g":{"ha":744,"x_min":-36,"x_max":746,"o":"m 550 197 l 550 199 q 543 386 549 268 q 536 514 538 483 q 536 558 536 539 q 407 569 467 576 q 294 525 343 561 q 222 437 250 492 q 189 319 193 382 q 200 219 185 264 q 247 153 215 174 q 329 132 279 129 q 494 186 400 135 q 550 197 521 200 m 733 606 q 732 521 731 578 q 739 396 733 492 q 746 201 744 274 q 707 -140 747 -15 q 624 -286 676 -231 q 464 -368 558 -354 q 224 -362 356 -383 q 10 -296 92 -342 q -36 -237 -25 -276 q -27 -163 -47 -199 q 32 -117 -7 -128 q 106 -125 71 -106 q 259 -170 158 -156 q 436 -174 360 -185 q 482 -150 464 -169 q 521 -79 504 -128 q 536 -12 531 -50 q 338 -64 431 -60 q 133 -8 221 -69 q 22 138 58 46 q -7 335 -15 229 q 49 531 1 439 q 176 682 97 622 q 390 764 269 751 q 647 729 510 776 q 697 690 679 718 q 733 606 738 657 z "},"h":{"ha":779,"x_min":-7,"x_max":776,"o":"m 193 415 q 196 351 194 389 q 204 72 204 144 q 176 3 204 32 q 107 -26 147 -26 q 38 3 67 -26 q 8 72 8 32 q 0 343 8 140 q -6 508 -4 447 q -7 774 -11 665 q 19 1007 -1 915 q 64 1067 29 1046 q 138 1080 99 1089 q 198 1036 176 1071 q 211 961 219 1001 q 188 678 188 865 q 328 751 254 725 q 494 771 422 786 q 619 683 574 753 q 665 563 651 636 q 679 444 674 518 q 682 410 681 435 q 693 299 686 328 q 722 218 701 263 q 768 131 736 188 q 776 56 788 94 q 728 -3 764 17 q 654 -11 693 -22 q 596 36 615 0 q 543 136 561 100 q 501 257 515 200 q 486 399 492 300 q 483 432 485 422 q 474 525 479 492 q 457 575 467 560 q 454 578 456 578 l 454 579 l 453 579 q 436 579 447 581 q 396 568 419 576 q 193 415 278 525 z "},"i":{"ha":269,"x_min":7,"x_max":269,"o":"m 219 1065 q 261 1007 253 1044 q 269 936 271 968 q 240 856 268 889 q 146 815 203 811 q 76 840 108 817 q 17 951 19 883 q 90 1088 13 1038 q 159 1101 122 1107 q 219 1065 196 1094 m 229 631 q 229 628 229 629 q 228 621 229 625 q 225 594 226 608 q 215 501 219 549 q 203 292 206 388 q 214 68 199 146 q 198 -5 221 29 q 135 -46 175 -39 q 62 -30 96 -53 q 21 32 28 -7 q 7 297 3 131 q 21 518 10 399 q 31 617 25 568 q 33 644 32 632 q 35 653 35 649 q 35 656 35 654 q 72 720 40 696 q 144 740 104 744 q 210 703 185 735 q 229 631 235 671 z "},"j":{"ha":315,"x_min":-275,"x_max":306,"o":"m 219 1065 q 261 1007 253 1044 q 269 936 271 968 q 240 856 268 889 q 146 815 203 811 q 76 840 108 817 q 17 951 19 883 q 90 1088 13 1038 q 159 1101 122 1107 q 219 1065 196 1094 m 263 699 q 306 -4 342 271 q 143 -357 271 -260 q -1 -407 76 -408 q -144 -356 -78 -406 q -236 -240 -201 -311 q -275 -85 -271 -169 q -249 -15 -276 -44 q -182 17 -222 15 q -112 -8 -142 19 q -79 -75 -82 -35 q -25 -200 -75 -162 q 1 -211 -11 -211 q 25 -201 13 -211 q 69 -137 50 -183 q 111 21 99 -75 q 69 663 143 265 q 85 736 63 703 q 148 777 108 769 q 221 761 188 785 q 263 699 254 738 z "},"k":{"ha":681,"x_min":1,"x_max":682,"o":"m 263 989 q 228 747 238 883 q 219 560 221 669 q 335 622 258 583 q 344 628 336 624 l 353 632 q 447 682 417 664 q 519 732 492 708 q 590 757 550 760 q 657 724 631 754 q 681 653 683 693 q 649 585 679 613 q 546 514 607 549 q 442 457 510 492 q 486 394 476 410 q 569 267 540 321 q 614 163 599 211 q 626 44 632 100 q 590 -22 621 4 q 518 -42 558 -47 q 452 -6 478 -37 q 432 65 426 25 q 397 172 435 103 q 328 282 374 217 q 315 299 324 288 q 297 322 306 311 q 282 343 289 333 l 275 353 q 271 360 272 357 q 214 303 235 332 q 213 260 214 282 q 196 57 207 146 q 160 -8 192 17 q 88 -28 128 -33 q 22 8 47 -24 q 1 81 -3 40 q 17 268 13 163 q 21 463 19 332 q 22 493 22 483 q 32 761 25 664 q 72 1033 43 913 q 115 1094 81 1072 q 190 1106 150 1115 q 250 1063 229 1097 q 263 989 271 1028 z "},"l":{"ha":242,"x_min":28,"x_max":242,"o":"m 239 1007 q 228 524 217 828 q 233 408 229 485 q 242 85 242 192 q 213 16 242 44 q 144 -12 185 -12 q 75 16 104 -12 q 46 85 46 44 q 38 400 46 188 q 33 517 35 478 q 28 774 28 667 q 44 1031 31 914 q 81 1096 49 1071 q 153 1116 113 1121 q 218 1079 193 1111 q 239 1007 243 1047 z "},"m":{"ha":975,"x_min":26,"x_max":976,"o":"m 753 571 q 689 511 731 554 q 682 504 686 508 q 615 439 638 458 q 597 425 607 431 q 597 360 599 394 q 574 -14 596 138 q 535 -78 568 -54 q 463 -97 503 -103 q 399 -59 424 -92 q 381 14 374 -26 q 401 363 400 151 q 393 554 403 482 q 393 557 393 556 q 240 431 296 507 q 224 413 233 421 q 222 381 222 394 q 222 185 218 253 q 240 68 226 100 q 240 -7 256 31 q 188 -60 225 -44 q 113 -62 151 -76 q 60 -10 75 -47 q 26 175 32 54 q 26 386 22 251 q 28 439 26 406 q 32 583 32 540 q 28 692 32 654 q 49 764 24 732 q 114 801 74 796 q 186 780 154 806 q 222 714 218 754 q 225 683 224 700 q 315 738 268 714 q 319 739 317 738 l 319 739 q 322 740 321 740 q 325 742 324 742 q 343 751 335 747 q 374 764 360 758 q 418 775 397 772 q 493 763 460 779 q 543 718 522 747 q 567 672 557 699 q 568 668 568 669 q 631 725 604 703 q 740 783 689 772 q 893 725 833 801 q 953 569 935 674 q 976 281 975 453 q 975 136 976 231 q 975 35 975 67 q 946 -35 975 -6 q 876 -64 917 -64 q 808 -35 836 -64 q 779 35 779 -6 q 779 139 779 68 q 781 278 781 232 q 761 535 779 433 q 753 571 757 556 z "},"n":{"ha":700,"x_min":6,"x_max":700,"o":"m 201 719 l 201 719 q 201 716 201 718 q 201 713 201 714 q 203 694 203 704 q 204 683 203 689 q 275 725 240 707 q 422 769 354 765 q 590 694 531 776 q 657 535 636 629 q 675 374 672 467 q 675 244 676 328 q 675 118 672 151 q 681 82 676 96 q 682 76 682 78 q 699 4 706 43 q 661 -60 693 -35 q 588 -78 628 -83 q 524 -39 549 -72 q 490 33 501 -10 q 479 104 483 64 q 479 249 476 147 q 479 368 481 328 q 435 574 476 511 l 433 574 q 363 550 407 572 q 276 493 319 528 q 244 467 258 479 q 235 456 239 461 q 231 451 232 453 q 218 436 225 443 q 219 404 218 421 q 222 349 221 375 q 238 -7 238 64 q 209 -76 238 -47 q 140 -106 181 -106 q 70 -76 99 -106 q 42 -7 42 -47 q 26 338 42 60 q 24 393 25 365 q 11 613 18 497 q 8 682 10 649 q 7 701 7 693 q 7 707 7 704 l 6 708 q 31 779 4 749 q 98 812 57 810 q 169 787 139 814 q 201 719 199 760 z "},"o":{"ha":724,"x_min":1,"x_max":722,"o":"m 372 571 q 285 525 325 563 q 193 360 215 463 q 211 190 172 260 q 351 108 250 119 q 474 150 429 100 q 528 300 519 204 q 497 475 535 399 q 418 549 465 539 q 372 571 392 554 m 542 708 q 672 561 624 660 q 722 286 733 438 q 621 21 711 124 q 329 -86 508 -106 q 156 -28 231 -75 q 39 94 82 18 q 1 401 -35 228 q 154 671 38 567 q 468 765 292 794 q 542 708 519 757 z "},"p":{"ha":735,"x_min":33,"x_max":731,"o":"m 229 224 q 267 219 249 225 q 453 238 379 183 q 536 383 522 288 q 504 529 550 475 q 446 567 482 556 q 333 572 400 582 q 258 560 282 565 q 235 553 244 556 q 231 496 232 526 q 229 224 226 392 m 233 754 q 267 761 249 758 q 289 764 276 763 l 306 767 q 504 754 415 782 q 653 657 593 726 q 723 519 703 599 q 731 354 743 439 q 675 199 717 271 q 569 79 633 128 q 233 25 425 -26 q 233 -4 233 11 q 235 -42 233 -19 l 235 -61 q 236 -79 235 -72 q 238 -147 236 -122 q 239 -257 239 -219 q 210 -326 239 -297 q 141 -356 182 -356 q 72 -326 100 -356 q 43 -257 43 -297 q 38 -10 43 -217 q 33 197 35 115 q 36 504 31 388 q 38 551 36 531 q 33 586 33 568 q 46 638 35 613 q 68 729 54 696 q 121 783 83 767 q 196 783 158 799 q 233 754 218 774 z "},"q":{"ha":675,"x_min":-1,"x_max":675,"o":"m 435 226 q 436 286 435 253 q 438 346 436 325 q 444 586 440 494 q 374 572 404 583 q 250 454 304 549 q 193 254 181 338 q 243 174 200 199 q 343 163 288 147 q 435 226 397 176 m 642 611 q 633 342 636 510 q 632 282 632 322 q 619 -67 626 50 q 621 -121 619 -85 q 622 -136 622 -131 q 613 -257 626 -203 q 569 -317 604 -296 q 495 -329 535 -339 q 435 -285 456 -319 q 422 -211 414 -250 q 426 -147 429 -186 q 425 -133 426 -142 q 425 -54 422 -85 q 426 -17 425 -35 q 393 -28 410 -22 q 143 6 258 -62 q 47 98 85 40 q -1 226 8 156 q 81 553 -22 376 q 310 757 171 710 q 444 782 368 778 q 581 782 494 785 q 649 749 622 779 q 675 679 676 719 q 642 611 674 639 z "},"r":{"ha":658,"x_min":15,"x_max":657,"o":"m 217 497 q 226 33 200 267 q 206 -38 231 -7 q 140 -74 181 -69 q 68 -54 100 -79 q 32 11 36 -29 q 15 365 13 181 q 42 699 18 549 q 82 763 49 739 q 154 779 115 786 q 226 726 204 771 q 238 731 232 729 q 451 761 335 763 q 596 700 539 761 q 653 582 638 654 q 656 472 663 529 q 631 374 650 414 q 574 323 613 336 q 499 327 536 310 q 449 383 463 344 q 454 458 436 421 l 456 461 q 457 469 457 464 q 461 492 460 479 q 460 544 465 521 q 454 561 458 554 q 453 565 454 564 q 450 565 451 565 q 308 548 371 567 q 217 497 244 529 z "},"s":{"ha":690,"x_min":-1,"x_max":690,"o":"m 417 489 q 407 558 411 513 q 403 582 404 575 q 400 608 401 597 q 299 568 351 597 q 204 490 235 532 q 186 451 188 468 q 199 447 192 450 q 325 432 231 439 q 349 431 342 432 q 450 421 411 426 q 554 393 511 411 q 657 311 621 364 q 690 185 693 258 q 646 79 689 126 q 571 24 617 49 q 394 -36 500 -15 q 218 -51 299 -56 q 139 -40 172 -50 q 96 -21 114 -33 q 50 29 65 -1 q 44 103 32 65 q 94 160 57 142 q 151 169 122 174 q 203 146 181 165 q 225 144 213 144 q 357 157 283 142 q 478 196 433 172 q 492 204 486 200 q 490 206 492 206 q 478 213 486 210 q 335 236 442 228 q 313 238 328 236 q 231 244 258 240 q 147 258 182 249 q 64 297 97 272 q -1 389 15 333 q 47 607 -32 501 q 201 739 101 682 q 374 804 290 789 q 461 806 424 813 q 513 789 490 801 q 563 738 546 769 q 588 668 578 708 q 597 607 593 643 q 601 581 599 599 q 608 532 606 546 q 595 458 617 492 q 534 415 574 424 q 460 427 494 406 q 417 489 426 449 z "},"t":{"ha":615,"x_min":-18,"x_max":615,"o":"m 365 943 q 363 911 365 936 q 357 860 360 886 q 354 831 354 835 q 349 789 351 808 q 425 789 396 789 q 529 782 483 788 q 594 744 569 776 q 615 672 619 713 q 578 607 610 632 q 506 588 546 582 q 331 593 450 594 q 322 503 326 546 q 307 224 308 331 q 308 125 306 163 q 311 96 310 107 q 311 93 311 94 l 313 92 q 313 17 328 54 q 262 -37 299 -21 q 188 -40 225 -54 q 133 13 150 -25 q 113 110 118 47 q 111 226 110 157 q 128 519 113 340 q 133 597 131 557 q 57 610 93 601 q -5 652 17 618 q -18 726 -26 686 q 24 788 -10 765 q 99 801 58 810 q 153 793 124 796 q 158 851 156 821 q 163 881 160 856 q 167 931 165 907 q 171 963 169 956 q 206 1028 175 1003 q 278 1050 238 1054 q 344 1015 318 1046 q 365 943 369 983 z "},"u":{"ha":613,"x_min":-26,"x_max":606,"o":"m 183 674 q 169 514 171 600 q 183 329 168 410 q 233 199 200 242 q 300 165 260 165 q 329 168 313 165 q 400 183 361 172 q 397 242 399 204 q 392 365 393 318 q 392 576 388 493 q 424 758 399 693 q 476 813 439 796 q 551 814 513 829 q 605 762 589 799 q 606 688 621 725 q 588 565 592 651 q 588 372 583 490 q 593 251 589 326 q 600 50 600 97 q 572 -19 600 10 q 503 -47 543 -47 q 428 -12 457 -47 q 354 -26 389 -22 q 300 -31 325 -31 q 79 79 164 -31 q -8 292 17 158 q -26 518 -28 393 q -11 706 -25 618 q 28 769 -4 746 q 101 786 61 793 q 165 747 142 779 q 183 674 189 714 z "},"v":{"ha":650,"x_min":11,"x_max":646,"o":"m 199 736 q 238 586 218 669 q 267 440 247 538 q 268 432 267 435 q 285 344 279 375 q 331 425 308 382 q 460 707 421 588 q 510 764 474 746 q 584 769 546 782 q 640 719 622 756 q 646 644 658 683 q 503 331 601 510 q 306 44 394 133 q 264 18 288 26 q 190 24 226 6 q 151 56 167 35 q 139 78 143 67 q 131 103 135 89 q 128 117 131 107 l 128 118 q 108 215 117 153 q 107 225 108 218 q 100 272 103 258 q 75 396 90 315 q 74 403 75 397 q 46 544 56 497 q 11 678 29 619 q 17 752 -1 717 q 75 800 36 788 q 150 794 114 813 q 199 736 186 775 z "},"w":{"ha":942,"x_min":25,"x_max":939,"o":"m 221 686 q 224 549 219 647 q 246 315 231 414 q 254 260 250 285 q 321 414 288 326 q 364 540 347 485 q 375 582 371 564 q 406 669 367 633 q 482 701 436 703 q 544 676 518 700 q 575 615 571 651 q 600 544 589 588 q 625 417 611 501 q 628 399 626 410 q 629 394 628 397 q 629 390 629 393 q 631 382 631 385 q 636 347 635 361 q 674 186 656 236 q 706 379 688 250 l 721 497 q 735 603 729 565 q 750 678 743 650 q 797 736 761 717 q 871 744 832 756 q 930 698 910 733 q 939 624 950 663 q 928 572 935 608 q 914 472 924 538 q 899 353 903 381 q 864 142 881 214 q 838 54 853 89 q 815 13 828 31 q 761 -32 793 -18 q 603 -29 676 -67 q 510 72 547 0 q 468 190 486 118 q 458 235 464 211 q 378 82 414 133 q 332 28 356 49 q 260 -7 299 -1 q 169 10 213 -15 q 119 60 142 28 q 51 288 75 126 q 29 540 36 394 q 25 693 24 646 q 56 761 26 733 q 126 788 86 789 q 194 756 167 786 q 221 686 222 726 z "},"x":{"ha":765,"x_min":-3,"x_max":767,"o":"m 176 713 q 185 701 178 708 q 203 678 192 692 q 263 610 225 651 q 351 517 300 569 q 547 743 474 663 q 616 774 575 772 q 686 747 657 775 q 717 679 715 719 q 692 610 719 639 q 490 376 614 526 q 626 240 550 315 q 658 208 632 235 q 708 158 685 182 q 738 129 732 135 q 767 60 767 101 q 738 -9 767 19 q 669 -37 710 -37 q 600 -8 628 -37 q 571 19 594 -4 q 521 69 547 43 q 489 100 494 96 q 367 222 421 168 q 297 128 325 168 q 258 64 271 89 q 251 50 253 56 q 219 -10 247 14 q 154 -35 192 -35 q 85 -6 114 -35 q 57 63 57 22 q 67 115 57 88 q 85 156 74 133 q 136 238 103 190 q 228 364 172 292 q 7 613 42 556 q -2 688 -12 649 q 43 747 8 726 q 117 758 78 768 q 176 713 157 747 z "},"y":{"ha":765,"x_min":-11,"x_max":767,"o":"m 411 403 l 414 410 q 419 419 418 417 q 583 728 525 624 q 642 774 603 763 q 717 765 682 785 q 765 693 758 742 l 765 692 l 765 690 l 767 689 l 767 688 l 767 686 l 767 685 l 767 683 l 767 682 l 767 681 l 767 679 l 767 678 l 767 676 l 767 675 l 767 674 l 767 672 l 767 671 l 767 669 l 765 668 l 765 667 l 765 665 l 765 664 l 765 663 l 765 661 l 754 632 q 593 329 697 531 l 585 313 q 576 296 579 303 q 408 -18 471 92 q 347 -112 389 -53 l 344 -115 q 276 -228 293 -190 q 222 -280 260 -265 q 147 -278 183 -294 q 95 -223 110 -261 q 97 -147 81 -185 q 139 -71 114 -111 q 183 -4 154 -47 l 185 -3 l 186 -1 q 238 79 222 53 q 240 83 239 82 q 235 93 238 88 q -11 638 53 388 q -1 713 -21 678 q 59 758 19 747 q 133 747 99 768 q 178 688 168 726 q 350 285 224 508 q 401 386 371 326 q 411 403 406 393 z "},"z":{"ha":746,"x_min":-14,"x_max":747,"o":"m 142 751 l 217 751 l 538 751 q 640 739 606 751 q 671 724 658 733 q 706 686 693 708 q 719 628 722 658 q 707 582 718 604 q 674 540 696 560 q 643 517 661 529 q 572 474 618 500 q 250 218 378 361 q 374 214 303 215 q 558 215 449 214 q 586 216 564 215 q 611 217 608 217 q 649 217 638 217 q 718 188 689 217 q 747 119 747 160 q 718 50 747 79 q 649 21 689 21 q 615 21 639 21 q 590 20 613 21 q 563 19 568 19 q 371 18 449 18 q 181 28 254 19 q 100 42 132 33 q 61 54 78 47 q 17 85 35 67 q -14 158 -14 115 q -6 203 -14 181 q 18 247 1 224 q 31 264 24 254 q 49 285 39 274 q 53 289 50 286 l 54 292 q 338 556 178 444 l 217 556 l 142 556 q 72 585 101 556 q 43 654 43 614 q 72 723 43 694 q 142 751 101 751 z "},"{":{"ha":513,"x_min":-17,"x_max":513,"o":"m 481 975 q 428 942 457 954 q 390 928 414 935 q 379 925 382 925 q 304 792 328 874 q 286 707 293 756 q 274 611 281 676 q 274 608 274 610 q 244 424 260 488 q 206 363 235 388 q 224 328 218 339 q 243 282 238 299 q 264 156 253 242 q 265 143 265 150 l 267 138 q 267 132 267 133 q 269 108 268 118 q 276 61 274 82 q 321 -96 293 -49 q 392 -136 346 -136 q 462 -165 433 -136 q 490 -234 490 -193 q 462 -303 490 -275 q 392 -332 433 -332 q 154 -197 235 -332 q 107 -82 125 -149 q 83 32 93 -33 q 75 83 79 54 q 72 107 75 93 q 72 114 72 110 q 71 119 71 118 q 69 131 71 126 q 56 226 61 201 l 54 228 q 49 240 51 233 q 28 279 43 250 q 26 282 28 281 q 1 332 10 315 q -10 358 -6 347 q -15 378 -14 368 q -17 394 -17 386 q -14 426 -18 411 q 40 500 -1 474 q 63 513 51 507 q 79 629 69 549 q 79 633 79 631 q 93 738 88 703 q 117 847 101 799 q 242 1064 154 976 q 296 1103 265 1088 q 338 1117 313 1110 q 343 1118 340 1117 q 347 1119 346 1119 q 349 1119 347 1119 q 419 1145 379 1147 q 487 1113 460 1143 q 513 1043 514 1083 q 481 975 511 1003 z "},"|":{"ha":257,"x_min":31,"x_max":253,"o":"m 244 1115 q 226 371 189 758 q 229 297 228 351 q 233 196 231 286 q 236 82 235 106 q 244 -90 240 -28 q 250 -153 247 -129 q 253 -171 251 -164 q 253 -175 253 -174 q 247 -249 265 -212 q 190 -297 229 -285 q 116 -292 153 -310 q 67 -236 79 -274 q 49 -104 56 -201 q 40 76 44 -37 q 38 190 40 100 q 33 290 35 281 q 31 351 32 338 q 50 1146 -8 764 q 90 1210 57 1186 q 163 1227 122 1233 q 226 1188 203 1221 q 244 1115 250 1156 z "},"}":{"ha":457,"x_min":6,"x_max":451,"o":"m 154 1153 q 175 1140 163 1147 q 188 1133 178 1139 l 197 1128 q 274 1075 246 1099 q 344 981 319 1035 q 382 836 376 917 q 381 707 386 785 q 376 674 379 696 q 371 579 371 610 q 376 515 371 543 q 379 513 378 514 q 400 481 386 500 q 401 476 401 478 q 415 458 403 475 q 428 439 426 442 q 439 424 435 429 q 444 414 442 418 q 449 403 447 408 q 451 336 463 371 q 433 292 446 315 q 415 260 428 281 l 414 260 q 396 221 397 231 q 394 135 390 189 q 397 96 394 122 q 401 -6 401 28 q 383 -121 400 -71 q 172 -304 336 -256 q 98 -297 133 -315 q 51 -239 63 -278 q 58 -164 39 -200 q 117 -117 78 -128 q 178 -86 158 -104 q 197 -57 192 -74 q 206 -3 204 -37 q 201 81 206 22 q 199 124 199 108 q 201 250 194 199 q 222 317 207 283 q 246 358 231 333 q 240 367 242 364 q 238 369 239 368 q 213 407 222 393 q 201 425 207 418 q 189 457 193 442 q 175 581 175 513 q 182 692 175 619 q 185 724 183 713 q 168 897 194 842 q 146 926 160 914 q 97 958 132 939 l 92 961 q 83 967 88 964 q 75 972 78 971 q 50 988 61 981 q 6 1048 15 1008 q 19 1122 -3 1088 q 80 1166 40 1157 q 154 1153 119 1175 z "},"~":{"ha":814,"x_min":22,"x_max":813,"o":"m 51 535 q 310 643 174 657 q 418 608 363 636 q 497 560 451 592 q 510 550 500 557 q 521 542 521 543 q 543 528 535 533 q 565 514 557 518 q 571 521 568 517 q 594 558 581 533 q 613 592 606 578 q 635 626 625 613 q 636 629 636 628 q 700 669 660 663 q 773 653 740 676 q 813 589 806 629 q 796 517 819 549 l 796 515 q 782 493 790 507 q 779 489 781 492 q 776 483 778 486 q 772 475 774 479 q 768 468 769 471 q 765 464 767 465 l 764 461 q 732 408 746 429 q 681 354 707 374 q 497 329 599 289 q 435 364 469 342 q 408 382 424 371 q 397 390 407 383 q 383 399 386 397 q 288 447 319 444 q 253 442 271 450 q 190 396 224 431 q 121 368 161 368 q 51 397 81 368 q 22 465 22 425 q 51 535 22 506 z "},"":{"ha":400,"x_min":-14,"x_max":400,"o":"m 297 565 q 294 553 296 560 q 288 467 289 528 q 282 369 286 404 q 271 306 276 339 q 222 68 257 221 q 179 -129 190 -71 q 138 -192 171 -169 q 64 -206 104 -214 q 1 -165 24 -199 q -14 -92 -21 -132 q 31 113 -1 -31 q 78 339 64 260 q 88 397 83 369 q 92 472 90 421 q 94 528 93 508 q 103 592 97 563 q 108 618 106 606 q 176 686 124 671 q 132 717 151 697 q 86 835 85 763 q 113 938 86 888 q 181 1017 139 989 q 186 1019 183 1018 q 275 1038 229 1044 q 353 996 321 1031 q 400 883 392 953 q 386 772 406 824 q 349 714 372 738 q 269 675 315 681 q 257 674 264 674 q 295 627 283 657 q 297 565 307 597 z "},"":{"ha":682,"x_min":28,"x_max":681,"o":"m 531 694 q 382 756 446 750 q 303 735 336 758 q 247 660 269 711 q 224 549 225 610 q 240 441 222 489 q 286 372 257 393 q 356 357 314 353 q 508 425 421 365 q 582 440 542 447 q 645 399 622 432 q 660 326 668 365 q 619 263 653 286 q 475 186 544 213 q 475 136 475 167 q 475 118 475 131 q 474 76 474 90 q 445 7 474 36 q 376 -22 417 -22 q 307 7 336 -22 q 278 76 278 36 q 279 121 278 92 q 279 138 279 132 q 279 167 279 154 q 172 213 221 179 q 57 368 96 268 q 28 556 25 454 q 74 752 32 661 q 190 894 115 843 q 322 949 250 938 q 325 963 324 956 q 331 983 326 972 q 332 993 331 988 l 333 997 q 335 1001 335 1000 q 340 1019 338 1013 q 383 1081 349 1060 q 456 1094 417 1103 q 517 1051 496 1086 q 531 978 539 1017 q 524 949 528 965 q 517 922 518 928 q 639 858 576 899 q 681 797 672 836 q 667 723 689 757 q 605 681 644 689 q 531 694 565 672 z "},"":{"ha":856,"x_min":-100,"x_max":856,"o":"m 731 853 q 710 850 731 853 q 658 871 690 847 q 591 901 626 894 q 496 904 556 908 q 318 785 383 897 q 274 685 293 742 q 314 686 293 686 q 551 689 393 689 l 571 689 q 640 660 611 689 q 668 590 668 631 q 640 521 668 550 q 571 492 611 492 l 551 492 q 318 490 396 492 q 233 488 274 489 q 232 483 232 485 q 219 297 222 400 q 217 210 218 256 q 403 224 289 214 q 747 254 638 242 q 819 233 788 258 q 856 167 851 207 q 834 94 860 126 q 768 58 808 63 q 418 28 656 47 q 221 14 294 18 q 151 11 176 11 q 125 11 135 11 q 79 21 99 13 q 31 67 47 35 q 21 113 21 88 q 21 126 21 119 l 21 133 q 24 303 21 242 q 33 469 26 393 q 13 467 22 468 q -60 485 -28 461 q -99 549 -93 510 q -81 622 -106 589 q -17 661 -57 654 q 67 671 24 667 q 149 883 97 794 q 483 1100 265 1085 q 628 1093 567 1106 q 772 1029 706 1078 q 812 965 806 1006 q 794 892 818 925 q 731 853 771 860 z "},"":{"ha":831,"x_min":21,"x_max":824,"o":"m 424 661 q 379 653 400 661 q 319 589 339 636 q 313 504 300 543 q 350 469 322 476 q 436 482 394 458 q 501 550 479 506 q 511 608 518 586 q 506 617 510 614 q 476 629 496 625 q 424 661 444 636 m 557 832 q 585 851 567 839 q 588 856 586 853 q 592 858 589 856 q 636 890 621 879 q 694 922 667 910 q 769 923 732 938 q 823 871 807 908 q 824 796 839 833 q 771 742 808 758 q 711 703 753 735 q 707 699 710 701 q 703 696 704 697 q 690 688 696 692 q 697 671 694 679 q 676 464 731 572 q 658 432 668 447 q 664 413 663 422 q 665 410 665 411 q 711 360 676 390 q 761 318 726 346 q 797 253 792 293 q 776 181 801 213 q 710 144 750 149 q 638 165 669 140 q 581 214 600 196 q 506 297 531 258 q 303 279 407 253 q 218 317 256 290 q 201 294 207 307 q 148 242 186 257 q 73 244 110 228 q 22 298 36 260 q 22 372 7 336 q 85 461 44 422 q 115 488 99 475 q 139 664 101 578 q 151 692 144 679 q 43 888 76 800 q 44 963 28 926 q 99 1014 61 1000 q 174 1011 138 1028 q 226 957 211 994 q 294 829 247 901 q 304 833 299 832 q 557 832 419 882 z "},"":{"ha":838,"x_min":-22,"x_max":836,"o":"m 140 365 q 257 356 178 363 q 297 353 279 354 q 332 438 314 396 q 311 463 319 449 q 174 474 238 471 q 106 506 133 476 q 81 577 79 536 q 113 645 83 618 q 185 669 143 672 q 204 668 194 669 q 144 765 174 722 q 97 826 131 786 q 94 831 94 829 q 92 833 93 832 q 29 915 50 883 q -22 1026 -7 971 q -12 1101 -32 1065 q 47 1147 8 1136 q 122 1137 86 1157 q 168 1078 157 1117 q 194 1022 175 1051 q 243 957 208 1000 q 246 954 244 956 q 249 951 247 951 q 307 874 288 903 q 426 668 361 793 q 431 660 429 664 q 658 1065 538 883 q 720 1106 681 1099 q 794 1092 760 1114 q 835 1030 828 1069 q 821 956 843 990 q 628 619 719 804 q 700 611 665 615 q 765 575 740 607 q 785 503 790 543 q 749 438 781 463 q 676 417 717 413 q 542 433 625 422 q 497 326 519 381 q 626 289 565 311 q 682 238 665 275 q 685 163 699 200 q 633 108 671 125 q 558 106 596 90 q 442 138 504 125 q 426 140 433 139 q 368 -26 397 60 q 319 -83 356 -65 q 244 -88 283 -101 q 188 -39 206 -75 q 182 36 169 -3 q 226 161 204 100 q 119 171 158 167 q 53 207 79 175 q 32 279 28 239 q 68 345 36 319 q 140 365 100 371 z "},"":{"ha":221,"x_min":-14,"x_max":221,"o":"m 221 486 q 218 446 219 469 q 216 427 218 444 q 214 404 214 410 q 201 249 204 307 q 211 19 194 106 q 197 -54 219 -21 q 135 -96 175 -87 q 62 -81 96 -104 q 19 -19 28 -58 q 6 258 -3 90 q 19 422 10 321 q 21 445 19 428 q 22 464 22 463 q 26 503 25 488 q 48 556 29 533 q 94 588 67 579 q 41 615 64 593 q 14 668 18 636 q -14 896 -8 797 q -3 1138 -22 1033 q 39 1201 6 1178 q 112 1216 72 1224 q 174 1174 151 1208 q 190 1101 197 1140 q 182 907 175 1021 q 207 700 186 819 q 194 633 213 664 q 140 590 175 601 q 201 554 178 585 q 221 486 225 524 z "},"":{"ha":749,"x_min":-32,"x_max":747,"o":"m 601 932 q 463 980 549 964 q 307 986 378 996 q 221 951 243 976 q 211 931 214 943 q 215 885 208 913 q 222 876 218 881 q 283 838 244 856 q 375 801 313 824 q 381 800 378 801 q 385 799 382 800 l 388 797 q 485 761 453 775 q 586 703 544 735 q 701 457 697 613 q 683 360 701 404 q 661 321 674 339 q 692 253 683 290 q 669 94 707 181 q 550 -50 632 3 q 385 -108 479 -96 q 183 -90 285 -122 q 17 -18 117 -71 q -31 39 -19 0 q -24 114 -43 78 q 33 162 -6 150 q 108 156 72 174 q 240 96 192 111 q 358 86 301 78 q 490 169 460 99 q 500 201 497 189 q 500 208 500 206 l 500 210 q 494 214 497 213 q 440 236 479 225 q 343 260 411 246 q 335 261 336 261 q 328 263 331 263 q 207 293 249 279 q 86 351 132 315 q 3 483 19 404 q 26 656 -11 561 q 76 746 47 710 q 58 768 67 757 q 28 825 36 796 q 74 1081 -14 979 q 279 1179 143 1160 q 502 1172 383 1194 q 703 1100 621 1150 q 747 1040 738 1079 q 735 965 757 1000 q 674 921 714 931 q 601 932 635 911 m 247 639 q 208 585 226 633 q 196 521 192 542 q 207 507 197 514 q 265 479 225 492 q 367 454 299 469 q 375 453 371 454 q 383 451 376 453 q 485 428 451 438 q 504 443 493 436 q 506 453 506 447 q 464 549 504 517 q 407 581 443 565 q 324 613 381 593 l 321 614 l 318 614 q 311 617 314 615 q 247 639 271 631 z "},"":{"ha":685,"x_min":28,"x_max":685,"o":"m 108 1122 q 188 1163 138 1163 q 307 1103 265 1163 q 333 997 339 1058 q 298 902 328 946 q 222 840 268 858 q 78 861 140 808 q 28 975 28 903 q 64 1082 28 1035 q 108 1122 83 1107 m 413 1106 q 448 1150 424 1133 q 503 1167 472 1167 q 596 1136 551 1167 q 656 1076 632 1113 q 685 981 686 1031 q 621 867 683 908 q 488 846 560 825 q 393 914 428 863 q 375 1051 347 981 q 413 1106 388 1082 z "},"":{"ha":944,"x_min":-21,"x_max":940,"o":"m 175 489 q 278 282 174 368 q 351 249 304 260 q 457 235 388 239 q 546 242 506 232 q 268 328 371 240 q 175 489 193 392 m 628 861 q 574 869 601 868 q 628 861 600 867 m 900 818 q 903 811 901 815 q 940 481 963 656 q 801 169 917 288 q 446 40 664 26 q 306 58 358 44 q 153 132 215 79 q 19 301 64 206 q -21 506 -25 397 q 129 860 -14 699 q 468 1056 272 1019 q 665 1054 568 1075 q 693 1047 679 1053 q 879 953 793 1021 q 917 889 911 928 q 900 818 922 850 m 592 668 q 426 646 492 689 q 367 556 374 611 q 396 476 360 507 q 458 446 419 456 q 582 439 511 433 q 653 417 622 443 q 688 350 685 390 q 688 340 689 344 q 746 506 733 407 q 710 764 764 647 q 708 743 710 753 q 666 682 700 704 q 592 668 632 660 z "},"":{"ha":578,"x_min":47,"x_max":576,"o":"m 264 764 l 265 764 q 275 769 269 767 q 358 863 313 793 q 372 879 365 872 q 374 964 372 928 q 324 968 346 969 q 276 949 294 965 q 247 899 257 932 q 242 829 238 867 q 258 772 244 794 q 264 764 261 768 m 572 981 q 569 821 567 933 q 572 742 571 789 q 573 717 572 738 q 575 692 574 696 q 576 649 575 665 q 549 578 576 608 q 481 549 521 549 q 424 564 450 547 q 388 610 399 581 q 379 604 383 607 q 208 575 293 550 q 89 674 133 597 q 47 811 54 733 q 64 968 39 893 q 144 1093 89 1043 q 310 1163 213 1156 q 519 1121 406 1169 q 570 1069 554 1106 q 572 997 586 1033 q 572 981 572 989 z "},"":{"ha":789,"x_min":26,"x_max":785,"o":"m 464 669 q 347 575 425 651 q 335 563 339 567 q 322 550 328 556 q 246 483 278 507 q 233 474 239 478 q 258 454 243 465 q 275 441 261 451 q 290 429 289 431 q 328 400 311 413 q 444 274 403 339 q 458 201 467 240 q 415 139 450 161 q 341 125 381 117 q 281 168 301 133 q 203 249 256 207 q 172 274 190 260 q 157 285 171 274 q 139 299 143 296 q 74 354 96 331 q 35 415 47 383 q 26 504 17 458 q 65 581 35 544 q 128 639 89 610 q 186 692 150 657 q 199 703 190 696 l 211 715 q 285 785 257 761 q 379 846 333 825 q 453 851 415 864 q 510 801 492 838 q 514 726 528 764 q 464 669 500 688 m 736 615 q 636 535 701 596 l 629 528 q 615 515 622 522 q 604 506 607 508 q 575 478 588 489 q 646 407 601 456 l 647 406 q 724 332 697 353 q 760 267 756 307 q 740 194 765 226 q 675 158 715 163 q 603 178 635 153 q 504 271 565 207 q 503 272 504 272 q 442 333 463 315 l 390 378 q 364 404 374 392 q 336 472 339 435 q 358 544 335 511 q 386 575 369 558 q 414 598 390 578 q 443 622 438 618 q 471 649 454 632 q 481 657 474 650 q 494 670 488 664 q 501 678 501 676 q 567 735 540 714 q 646 788 607 768 q 720 795 682 807 q 778 747 758 783 q 785 672 797 711 q 736 615 772 633 z "},"":{"ha":654,"x_min":-14,"x_max":654,"o":"m 57 594 q 181 610 113 608 q 292 607 219 610 q 325 604 314 606 q 400 604 351 604 q 494 601 465 606 q 547 589 524 597 q 603 553 579 576 q 654 429 649 507 q 640 288 657 375 q 598 225 632 247 q 524 210 564 203 q 463 252 485 218 q 449 326 440 286 q 458 408 458 378 q 403 408 444 408 q 317 410 349 408 q 282 411 304 410 q 186 414 217 414 q 104 404 139 413 q 31 415 65 394 q -14 475 -4 436 q -3 549 -24 514 q 57 594 18 583 z "},"":{"ha":1018,"x_min":-49,"x_max":1019,"o":"m 196 761 q 147 551 143 660 q 217 356 151 442 q 213 389 215 368 q 208 425 213 393 q 204 467 204 457 q 194 550 199 514 q 189 700 188 642 q 196 761 190 735 m 385 682 q 385 667 385 675 q 451 681 419 672 q 385 682 421 682 m 574 275 q 559 286 565 279 q 524 322 553 293 l 494 350 q 408 449 438 407 q 401 458 404 454 q 407 411 407 413 q 413 351 411 369 q 376 269 415 301 q 489 265 429 263 q 574 275 532 267 m 614 960 q 414 954 510 986 q 286 879 344 931 l 288 879 q 325 883 306 885 q 349 882 336 883 q 363 879 353 881 l 364 878 q 635 847 539 881 q 726 789 694 826 q 753 663 774 732 q 693 576 739 614 q 608 528 658 550 q 600 524 604 525 q 632 489 613 508 q 648 474 633 488 q 678 444 663 460 q 700 422 694 429 q 725 331 738 383 q 749 350 739 340 q 754 358 751 353 q 767 379 760 367 q 793 446 781 407 q 824 632 822 539 q 789 801 824 735 q 679 893 754 869 q 614 960 629 908 m 833 1036 q 964 892 915 983 q 1019 631 1021 782 q 980 388 1018 508 q 888 213 942 268 q 723 113 826 150 q 499 69 619 75 q 289 88 386 64 q 110 179 175 115 q -49 543 -40 331 q 53 906 -57 738 q 351 1140 167 1079 q 776 1108 558 1208 q 833 1036 824 1088 z "},"":{"ha":585,"x_min":13,"x_max":586,"o":"m 336 993 q 286 997 311 1007 q 232 951 256 986 q 208 879 207 917 q 233 825 208 847 q 296 804 261 800 q 363 843 333 810 q 390 908 390 874 q 347 982 389 947 q 336 993 342 988 m 461 1140 q 474 1132 468 1136 q 586 913 583 1039 q 508 711 588 800 q 324 611 431 626 q 101 681 199 593 q 13 875 15 758 q 69 1061 10 975 q 222 1182 129 1150 q 435 1163 332 1221 q 461 1140 450 1154 z "},"":{"ha":657,"x_min":-60,"x_max":657,"o":"m 85 561 q 221 554 144 556 q 229 554 225 554 q 247 690 233 626 q 289 751 256 729 q 363 766 322 774 q 425 724 403 758 q 439 650 447 690 q 425 554 429 606 q 563 551 506 554 q 631 520 604 550 q 657 450 658 490 q 626 382 656 410 q 556 356 596 354 q 422 358 501 358 q 424 350 424 354 q 425 253 425 285 q 396 183 425 211 q 326 154 367 154 q 257 183 286 154 q 228 253 228 211 q 228 346 228 283 q 226 358 228 353 q 217 358 222 358 q 65 367 133 360 q -1 402 25 371 q -22 474 -26 433 q 13 540 -18 514 q 85 561 44 565 m 38 67 q 217 75 97 68 q 242 78 233 76 q 528 83 422 89 q 595 50 568 81 q 619 -21 622 19 q 587 -88 617 -61 q 517 -112 557 -115 q 254 -118 424 -107 q 229 -119 246 -118 q 42 -129 106 -128 q -29 -102 0 -131 q -59 -33 -58 -74 q -31 36 -60 7 q 38 67 -3 65 z "},"":{"ha":540,"x_min":17,"x_max":542,"o":"m 279 965 q 313 989 299 979 q 279 965 296 982 m 113 1075 q 225 1165 165 1136 q 379 1190 296 1199 q 489 1144 447 1183 q 542 1028 536 1100 q 525 942 544 983 q 483 879 511 910 q 382 799 450 843 q 357 783 371 793 q 351 779 356 782 q 340 772 346 776 q 332 767 333 768 q 315 757 324 761 l 317 757 q 321 757 318 757 q 422 758 389 757 q 493 734 463 761 q 526 667 524 707 q 502 596 529 626 q 435 563 475 565 q 319 561 394 561 q 303 561 308 561 q 229 560 253 561 q 224 560 226 560 l 214 557 q 201 556 207 556 q 182 551 190 553 q 126 549 149 547 q 81 558 101 550 q 40 588 57 568 q 17 651 18 615 q 39 756 15 706 q 94 832 58 796 q 160 888 121 860 q 199 914 178 900 q 124 938 156 910 q 90 1004 93 964 q 113 1075 86 1044 z "},"":{"ha":547,"x_min":29,"x_max":532,"o":"m 82 1149 q 263 1192 168 1186 q 385 1172 335 1196 q 478 1040 468 1133 q 464 960 481 999 q 433 913 453 935 l 435 911 q 532 829 506 878 q 519 686 572 754 q 443 625 493 651 q 278 568 375 589 q 203 556 236 558 q 168 556 183 554 q 144 560 156 557 q 104 578 122 565 q 67 642 72 603 q 85 715 61 682 q 130 748 103 739 q 185 751 157 757 q 188 751 186 751 q 236 760 207 753 q 257 764 246 761 q 246 767 251 765 q 225 769 240 768 l 224 769 q 196 772 206 771 q 157 781 174 775 q 124 797 139 786 q 86 865 90 824 q 104 935 82 903 q 125 957 113 947 q 131 961 128 960 q 72 974 100 958 q 32 1019 44 990 q 30 1094 15 1057 q 82 1149 44 1132 z "},"":{"ha":475,"x_min":33,"x_max":469,"o":"m 419 953 q 367 913 396 942 q 301 840 343 890 l 297 836 q 289 827 293 832 q 283 821 285 822 q 265 799 274 808 q 196 727 226 754 q 124 703 165 700 q 57 736 83 706 q 33 807 31 767 q 67 875 36 847 q 118 928 88 893 q 135 947 125 936 q 140 953 136 949 q 148 963 144 958 q 153 968 151 968 q 231 1054 200 1025 q 335 1129 283 1104 q 410 1133 372 1146 q 466 1083 449 1119 q 469 1008 483 1046 q 419 953 456 969 z "},"":{"ha":783,"x_min":24,"x_max":781,"o":"m 743 674 l 743 671 q 743 651 743 664 q 743 582 742 624 q 751 386 744 499 q 781 68 767 126 q 771 -6 792 29 q 711 -51 750 -40 q 637 -40 672 -61 q 592 19 601 -19 q 581 83 586 40 q 360 -28 483 -8 q 222 -19 286 -40 q 219 -135 219 -76 q 191 -203 219 -175 q 122 -232 163 -232 q 52 -203 81 -232 q 24 -135 24 -175 q 40 225 24 -15 q 47 331 44 294 q 53 696 61 554 q 77 767 50 736 q 144 799 104 797 q 215 774 185 801 q 249 707 246 747 q 243 318 257 554 q 238 249 240 288 q 240 236 239 242 q 251 192 243 208 q 267 174 257 179 q 329 165 289 158 q 428 211 381 174 q 499 306 478 250 q 556 364 514 349 q 556 375 556 369 q 547 578 549 490 q 553 717 544 683 q 596 778 561 757 q 670 791 631 800 q 731 748 710 782 q 743 674 753 714 z "},"":{"ha":928,"x_min":10,"x_max":921,"o":"m 688 979 q 688 807 681 924 q 688 804 688 806 q 690 647 693 700 q 663 376 686 557 q 649 268 653 304 q 639 -43 626 78 q 617 -115 643 -83 q 551 -151 592 -147 q 480 -128 511 -154 q 444 -62 449 -103 q 454 290 431 79 q 457 311 456 301 q 149 372 271 286 q 40 504 76 424 q 10 678 4 585 q 58 847 15 765 q 174 986 101 928 q 579 1088 336 1115 q 603 1088 590 1089 q 668 1051 643 1083 q 688 979 693 1019 m 921 949 q 896 672 883 850 q 904 576 897 639 q 917 410 915 464 q 913 172 918 329 q 910 4 910 60 q 881 -65 910 -36 q 811 -93 851 -93 q 742 -65 771 -93 q 714 4 714 -36 q 718 178 714 64 l 718 179 q 721 404 722 331 q 708 558 719 451 q 700 658 703 624 q 699 836 693 760 q 739 1019 707 938 q 790 1074 753 1057 q 865 1075 828 1090 q 919 1023 903 1060 q 921 949 936 986 z "},"":{"ha":314,"x_min":46,"x_max":314,"o":"m 253 594 q 275 579 264 588 q 314 493 314 544 q 288 418 314 451 q 249 385 272 399 q 151 363 201 357 q 77 399 107 368 q 46 478 47 431 q 46 514 44 499 q 64 565 50 542 q 83 592 71 578 q 90 600 86 594 l 94 604 q 99 608 96 606 q 166 640 125 638 q 236 614 207 642 q 253 594 246 606 z "},"":{"ha":651,"x_min":181,"x_max":653,"o":"m 371 138 q 617 -43 553 53 q 653 -162 656 -101 q 606 -271 650 -224 q 421 -346 539 -343 q 217 -279 304 -347 q 181 -214 185 -254 q 201 -142 176 -174 q 267 -105 226 -110 q 338 -125 307 -100 q 417 -150 369 -150 q 447 -144 433 -149 q 406 -107 433 -128 q 289 -40 361 -74 q 238 16 251 -22 q 241 90 224 54 q 297 140 258 126 q 371 138 335 154 z "},"":{"ha":378,"x_min":4,"x_max":378,"o":"m 53 1118 q 151 1183 117 1161 q 182 1203 171 1197 q 199 1213 192 1208 q 222 1219 210 1217 q 265 1218 244 1224 q 311 1192 292 1211 q 336 1144 331 1172 q 343 1001 350 1082 q 324 869 339 951 q 321 849 322 863 q 306 768 310 797 q 358 733 338 760 q 378 674 378 707 q 349 604 378 633 q 281 575 321 575 q 232 574 265 575 q 218 574 224 574 q 153 574 179 572 q 76 583 111 575 q 16 627 38 593 q 4 701 -6 661 q 42 758 13 738 q 108 776 72 779 q 111 789 110 782 q 128 886 115 821 q 132 906 131 899 q 139 943 136 928 q 78 944 108 933 q 28 982 47 954 q 13 1055 6 1015 q 53 1118 19 1094 z "},"":{"ha":692,"x_min":-49,"x_max":692,"o":"m 485 403 q 350 519 444 447 q 374 496 364 508 q 414 392 414 449 q 381 292 413 343 q 398 310 388 300 q 415 326 408 319 q 424 335 422 333 q 457 369 443 354 q 485 403 475 389 m 369 753 q 424 710 390 736 q 435 701 428 707 q 450 690 443 696 q 464 681 457 685 l 469 675 q 569 594 532 626 q 663 497 625 544 q 692 404 694 457 q 672 333 690 369 q 601 236 650 290 q 561 196 585 219 q 547 182 560 194 q 522 156 535 169 q 504 139 508 143 q 485 118 492 126 q 481 113 482 115 q 421 67 460 78 q 346 78 382 57 q 303 134 314 97 q 307 204 292 171 q 176 79 263 158 q 106 53 146 51 q 38 85 65 56 q 12 156 10 115 q 44 224 14 197 q 206 385 171 339 l 204 386 l 200 389 q 190 398 196 393 q 176 408 183 403 q 163 417 169 413 q 153 425 157 422 q 14 569 72 492 q -37 646 -14 606 q -49 720 -58 681 q -3 780 -39 760 q 71 790 32 800 q 131 746 110 781 q 169 686 149 714 q 226 622 196 651 q 209 682 208 649 q 232 742 210 715 q 299 776 258 772 q 369 753 339 779 z "},"":{"ha":735,"x_min":17,"x_max":736,"o":"m 556 371 q 556 339 556 360 q 553 301 554 311 q 550 194 551 238 q 551 151 550 171 q 556 124 556 138 q 553 106 556 115 q 554 97 554 101 q 558 65 556 78 q 561 58 560 61 q 569 -15 579 24 q 524 -72 558 -53 q 449 -82 488 -93 q 389 -36 410 -71 q 367 29 375 -10 q 283 40 318 32 q 207 74 238 51 q 146 160 158 106 q 158 260 135 208 q 207 335 174 296 q 354 474 257 394 q 319 474 338 474 q 263 475 300 474 q 114 478 164 478 q 45 506 74 478 q 17 575 17 535 q 45 644 17 615 q 114 674 74 674 q 156 674 136 674 q 124 750 121 704 q 156 818 125 790 q 226 843 186 846 q 271 842 253 842 q 272 856 272 847 q 281 915 275 872 q 283 946 282 935 q 224 956 253 942 q 182 999 196 971 q 176 1072 164 1035 q 222 1129 188 1110 l 224 1129 q 225 1131 225 1129 q 236 1136 228 1132 q 269 1157 257 1150 q 272 1158 271 1157 q 311 1181 297 1174 q 331 1190 322 1186 q 349 1197 340 1194 q 378 1200 364 1200 q 415 1192 397 1199 q 464 1142 449 1176 q 485 1029 485 1097 q 479 926 486 989 q 475 892 476 913 q 471 860 472 872 q 526 838 501 858 q 560 788 551 818 q 552 716 569 750 q 499 669 535 682 q 625 679 567 672 q 698 660 665 685 q 735 594 731 635 q 715 522 740 554 q 650 485 690 490 q 529 475 592 478 q 544 419 546 450 q 556 371 557 396 z "},"":{"ha":735,"x_min":17,"x_max":736,"o":"m 339 296 q 361 306 353 301 q 346 301 353 304 q 339 296 342 299 m 156 363 q 256 475 181 436 q 114 478 163 478 q 45 506 74 478 q 17 575 17 535 q 45 644 17 615 q 114 674 74 674 q 156 674 136 674 q 124 750 121 704 q 156 818 125 790 q 226 843 186 846 q 271 842 253 842 q 272 856 272 847 q 281 915 275 872 q 283 946 282 935 q 224 956 253 942 q 182 999 196 971 q 176 1072 164 1035 q 222 1129 188 1110 l 224 1129 q 225 1131 225 1129 q 236 1136 228 1132 q 269 1157 257 1150 q 272 1158 271 1157 q 311 1181 297 1174 q 331 1190 322 1186 q 349 1197 340 1194 q 378 1200 364 1200 q 415 1192 397 1199 q 464 1142 449 1176 q 485 1029 485 1097 q 479 926 486 989 q 475 892 476 913 q 471 860 472 872 q 526 838 501 858 q 560 788 551 818 q 552 716 569 750 q 499 669 535 682 q 625 679 567 672 q 698 660 665 685 q 735 594 731 635 q 715 522 740 554 q 650 485 690 490 q 475 474 569 475 q 529 418 508 451 q 546 238 575 344 q 513 178 536 204 q 560 142 542 167 q 578 85 578 117 q 549 15 578 44 q 481 -14 521 -14 q 422 -19 476 -14 q 385 -22 400 -21 q 304 -26 336 -28 q 260 -21 279 -25 q 231 -10 244 -17 q 193 18 208 0 q 159 131 154 63 q 213 238 164 200 l 214 239 q 159 289 176 253 q 156 363 142 325 z "},"":{"ha":735,"x_min":17,"x_max":736,"o":"m 186 1153 q 401 1169 289 1189 q 490 1139 457 1161 q 553 1035 551 1101 q 542 981 553 1007 q 522 946 535 964 q 493 913 510 929 q 511 893 503 903 q 532 851 525 874 q 497 739 549 786 q 371 668 446 694 q 625 679 525 667 q 698 660 665 685 q 735 594 731 635 q 715 522 740 554 q 650 485 690 490 q 529 475 592 478 q 544 419 546 450 q 556 371 557 396 q 556 339 556 360 q 553 301 554 311 q 550 194 551 238 q 551 151 550 171 q 556 124 556 138 q 553 106 556 115 q 554 97 554 101 q 558 65 556 78 q 561 58 560 61 q 569 -15 579 24 q 524 -72 558 -53 q 449 -82 488 -93 q 389 -36 410 -71 q 367 29 375 -10 q 283 40 318 32 q 207 74 238 51 q 146 160 158 106 q 158 260 135 208 q 207 335 174 296 q 354 474 257 394 q 319 474 338 474 q 263 475 300 474 q 114 478 164 478 q 45 506 74 478 q 17 575 17 535 q 45 644 17 615 q 114 674 74 674 q 147 674 132 674 q 122 732 124 699 q 147 803 119 772 q 214 836 174 833 q 253 840 233 838 q 244 856 249 847 q 250 949 224 904 q 269 974 258 961 q 251 968 260 971 q 177 972 214 954 q 126 1027 140 989 q 130 1102 113 1065 q 186 1153 147 1139 z "},"":{"ha":814,"x_min":-39,"x_max":814,"o":"m 608 1076 q 631 1082 619 1081 q 711 1069 669 1088 q 806 975 783 1039 q 814 935 813 957 q 814 906 815 921 q 806 851 813 874 q 753 773 792 806 q 667 731 715 740 q 626 726 647 726 q 660 672 653 706 q 653 607 668 639 q 653 604 653 606 q 649 593 651 601 q 646 586 647 590 q 642 576 643 578 q 635 557 638 565 q 610 499 622 519 q 592 472 601 483 q 544 436 572 447 q 478 429 514 425 q 435 442 458 432 q 401 456 421 446 l 399 456 q 392 459 396 457 q 383 463 388 461 q 376 466 379 464 q 371 468 372 468 q 298 492 325 489 q 249 483 271 494 q 240 476 244 481 q 144 367 167 424 q 154 275 128 319 q 336 129 226 156 q 576 157 439 104 q 651 156 614 172 q 703 101 689 139 q 701 26 718 64 q 647 -25 685 -11 q 289 -61 453 -101 q -12 174 101 -15 q -39 436 -89 300 q 125 636 4 549 q 153 653 139 646 q 324 686 231 697 q 449 649 378 679 q 458 644 451 647 l 464 660 q 479 696 472 685 q 551 747 501 740 q 485 819 507 772 q 469 910 465 864 q 499 996 474 956 q 608 1076 540 1060 z "},"":{"ha":261,"x_min":13,"x_max":257,"o":"m 206 1024 q 219 953 201 1000 q 232 926 222 946 q 257 857 249 883 q 250 783 269 818 q 192 735 231 747 q 117 742 153 724 q 69 800 82 761 q 51 850 65 817 q 39 881 42 872 q 14 958 21 924 q 13 1058 4 1008 q 53 1121 19 1097 q 126 1138 86 1144 q 190 1097 167 1131 q 206 1024 213 1064 z "},"":{"ha":214,"x_min":11,"x_max":214,"o":"m 214 1049 q 211 903 215 997 q 211 900 211 901 q 207 804 207 836 q 178 735 207 764 q 110 706 150 706 q 40 735 69 706 q 11 804 11 764 q 15 910 11 840 q 15 913 15 911 q 18 1040 19 999 q 43 1110 15 1081 q 111 1142 71 1140 q 181 1117 151 1144 q 214 1049 211 1090 z "},"":{"ha":517,"x_min":-8,"x_max":511,"o":"m 181 1024 q 243 838 213 908 q 245 763 260 801 q 193 709 231 725 q 118 708 156 693 q 64 760 81 722 q -8 972 28 843 q 1 1047 -19 1011 q 60 1092 21 1082 q 134 1083 99 1103 q 181 1024 169 1064 m 400 1025 q 454 918 410 990 q 456 917 454 917 q 508 819 492 854 q 511 745 525 783 q 460 690 497 707 q 385 688 422 674 q 331 739 347 701 q 288 814 319 764 q 286 817 288 815 q 246 888 260 861 q 211 974 224 932 q 221 1048 201 1013 q 280 1094 240 1083 q 355 1084 319 1104 q 400 1025 390 1064 z "},"":{"ha":525,"x_min":56,"x_max":525,"o":"m 264 951 q 251 785 251 894 q 223 715 251 743 q 153 686 194 686 q 84 715 113 686 q 56 785 56 743 q 58 885 56 850 q 72 993 61 942 q 116 1055 82 1033 q 190 1068 150 1076 q 251 1025 229 1060 q 264 951 272 990 m 525 972 q 506 778 510 872 q 474 710 504 738 q 404 684 444 682 q 336 716 364 686 q 310 786 308 746 q 331 1000 315 890 q 369 1065 336 1040 q 442 1083 401 1089 q 506 1044 482 1076 q 525 972 531 1011 z "},"":{"ha":931,"x_min":-22,"x_max":929,"o":"m 751 768 q 678 806 738 790 q 542 821 625 818 q 444 810 483 824 q 588 797 514 806 q 653 762 628 793 q 674 690 678 731 q 638 624 669 650 q 565 603 607 599 q 269 619 408 619 q 253 496 249 561 q 257 463 254 479 q 274 465 265 464 q 578 490 446 493 q 646 460 618 489 q 673 390 674 431 q 643 322 672 350 q 574 294 614 293 q 342 278 471 297 q 508 175 415 189 q 697 246 607 160 q 768 272 728 274 q 836 242 808 271 q 863 172 864 213 q 832 104 861 132 q 478 -18 672 -47 q 188 158 310 7 q 131 242 156 197 q 92 235 108 238 q 18 251 51 228 q -22 314 -15 274 q -6 388 -29 354 q 57 428 17 421 q 64 429 61 428 q 58 483 60 456 q 67 619 54 553 q 25 651 42 629 q 6 703 8 674 q 28 774 1 743 q 94 808 54 804 q 151 813 122 811 q 176 844 163 829 q 344 980 257 939 q 549 1017 431 1021 q 725 994 653 1014 q 825 957 782 981 q 915 878 883 925 q 929 803 938 843 q 888 742 921 764 q 815 727 854 719 q 751 768 775 735 z "},"":{"ha":1389,"x_min":0,"x_max":0,"o":""},"":{"ha":417,"x_min":0,"x_max":0,"o":""}}}
